<svg xmlns="http://www.w3.org/2000/svg" width="22" height="22" viewBox="0 0 22 22">
  <g id="message-question" transform="translate(-620 -252)">
    <path id="Vector" d="M13.75,14.667H10.083L6,17.38a.914.914,0,0,1-1.421-.761V14.667A4.33,4.33,0,0,1,0,10.083v-5.5A4.33,4.33,0,0,1,4.583,0H13.75a4.33,4.33,0,0,1,4.583,4.583v5.5A4.33,4.33,0,0,1,13.75,14.667Z" transform="translate(621.833 254.227)" fill="none" stroke="#838691" stroke-linecap="round" stroke-linejoin="round" stroke-width="1.8"/>
    <path id="Vector-2" data-name="Vector" d="M1.522,4.125V3.933a1.436,1.436,0,0,1,.77-1.219,1.405,1.405,0,0,0,.752-1.192A1.522,1.522,0,1,0,0,1.522" transform="translate(629.478 258.288)" fill="none" stroke="#838691" stroke-linecap="round" stroke-linejoin="round" stroke-width="1.8"/>
    <path id="Vector-3" data-name="Vector" d="M0,0H22V22H0Z" transform="translate(620 252)" fill="none" opacity="0"/>
    <path id="Vector-4" data-name="Vector" d="M.5.5H.5" transform="translate(630.5 264.104)" fill="none" stroke="#838691" stroke-linecap="round" stroke-linejoin="round" stroke-width="1.8"/>
  </g>
</svg>
