<svg xmlns="http://www.w3.org/2000/svg" width="24" height="24" viewBox="0 0 24 24">
  <g id="tick-square" transform="translate(-748 -252)">
    <path id="Vector" d="M7,20h6c5,0,7-2,7-7V7c0-5-2-7-7-7H7C2,0,0,2,0,7v6C0,18,2,20,7,20Z" transform="translate(750 254)" fill="none" stroke="#395df7" stroke-linecap="round" stroke-linejoin="round" stroke-width="1.8"/>
    <path id="Vector-2" data-name="Vector" d="M0,0H24V24H0Z" transform="translate(748 252)" fill="none" opacity="0"/>
    <path id="Vector-3" data-name="Vector" d="M2.5,0A2.019,2.019,0,0,0,.23,1.97,1.625,1.625,0,0,0,.96,3.36,1.847,1.847,0,0,0,0,4.98C0,6.22.95,6.99,2.5,6.99S5,6.22,5,4.98a1.825,1.825,0,0,0-.97-1.62,1.615,1.615,0,0,0,.73-1.39A2.01,2.01,0,0,0,2.5,0Zm0,2.84a.812.812,0,0,1-.9-.8.8.8,0,0,1,.9-.79.8.8,0,0,1,.9.79A.812.812,0,0,1,2.5,2.84Zm0,2.91c-.66,0-1.14-.33-1.14-.93S1.84,3.9,2.5,3.9s1.14.33,1.14.92S3.16,5.75,2.5,5.75Z" transform="translate(757.5 260.505)" fill="#395df7"/>
  </g>
</svg>
