<svg xmlns="http://www.w3.org/2000/svg" width="24" height="24" viewBox="0 0 24 24">
  <g id="heart-circle" transform="translate(-300 -316)">
    <path id="Vector" d="M20,10A10,10,0,1,1,10,0,10,10,0,0,1,20,10Z" transform="translate(302 318)" fill="none" stroke="#ed1c25" stroke-linecap="round" stroke-linejoin="round" stroke-width="1.8"/>
    <path id="Vector-2" data-name="Vector" d="M5.73,9.56a1.269,1.269,0,0,1-.67,0C3.5,9.03,0,6.8,0,3.02A3,3,0,0,1,5.4,1.21a3,3,0,0,1,5.4,1.81C10.8,6.8,7.3,9.03,5.73,9.56Z" transform="translate(306.6 323.89)" fill="none" stroke="#ed1c25" stroke-linecap="round" stroke-linejoin="round" stroke-width="1.8"/>
    <path id="Vector-3" data-name="Vector" d="M0,0H24V24H0Z" transform="translate(300 316)" fill="none" opacity="0"/>
  </g>
</svg>
