<svg xmlns="http://www.w3.org/2000/svg" width="148" height="145" viewBox="0 0 148 145">
  <g id="Group_217" data-name="Group 217" transform="translate(-24.742 -11.004)">
    <path id="Union_43" data-name="Union 43" d="M2.925,6.618V4.5H.795a.794.794,0,1,1,0-1.589h2.13V.8A.8.8,0,1,1,4.52.8V2.913H6.651a.794.794,0,0,1,0,1.589H4.52V6.618a.8.8,0,0,1-1.595,0Z" transform="translate(24.742 133.856)" fill="#dae0f2"/>
    <path id="Union_46" data-name="Union 46" d="M2.906,6.636l.006-2.118H.8a.8.8,0,1,1,0-1.592H2.916L2.922.8a.8.8,0,0,1,.8-.8.792.792,0,0,1,.794.794L4.508,2.926H6.633a.8.8,0,1,1,0,1.592H4.5L4.5,6.632a.8.8,0,0,1-.8.8A.792.792,0,0,1,2.906,6.636Z" transform="translate(167.488 56.958) rotate(45)" fill="#dae0f2"/>
    <path id="Union_47" data-name="Union 47" d="M2.925,6.62V5.567a.8.8,0,0,1,1.595,0V6.62a.8.8,0,0,1-1.595,0ZM5.581,4.5a.794.794,0,1,1,0-1.589h1.07a.794.794,0,0,1,0,1.589ZM.795,4.5a.794.794,0,1,1,0-1.589h1.07a.794.794,0,0,1,0,1.589ZM2.925,1.85V.8A.8.8,0,1,1,4.52.8V1.85a.8.8,0,1,1-1.595,0Z" transform="translate(135.1 148.587)" fill="#dae0f2"/>
    <path id="Union_45" data-name="Union 45" d="M6.647,14.031v-3.17a.8.8,0,0,1,1.6,0v3.17a.8.8,0,1,1-1.6,0Zm4.81-1.255L9.2,10.531a.792.792,0,0,1,0-1.123.8.8,0,0,1,1.129,0l2.259,2.246a.8.8,0,0,1-1.129,1.122Zm-9.4-.246a.792.792,0,0,1,0-1.123L4.316,9.163a.8.8,0,0,1,1.129,0,.789.789,0,0,1,0,1.122L3.188,12.531a.8.8,0,0,1-1.129,0ZM10.9,8.208a.795.795,0,0,1,0-1.589h3.2a.795.795,0,0,1,0,1.589Zm-10.1,0a.795.795,0,1,1,0-1.589h3.2a.795.795,0,1,1,0,1.589ZM9.449,5.666a.791.791,0,0,1,0-1.122L11.706,2.3a.8.8,0,0,1,1.129,0,.789.789,0,0,1,0,1.122L10.579,5.666a.8.8,0,0,1-1.129,0Zm-4.883-.25L2.309,3.171a.791.791,0,0,1,0-1.122.8.8,0,0,1,1.129,0L5.7,4.294A.8.8,0,0,1,4.567,5.416ZM6.647,3.968V.8a.8.8,0,0,1,1.6,0V3.968a.8.8,0,0,1-1.6,0Z" transform="translate(113.632 11.004)" fill="#dae0f2"/>
    <path id="Union_48" data-name="Union 48" d="M3.965,9.015V7.574a1.081,1.081,0,1,1,2.163,0V9.015a1.081,1.081,0,0,1-2.163,0Zm3.6-2.887a1.081,1.081,0,0,1,0-2.163H9.01a1.081,1.081,0,1,1,0,2.163Zm-6.486,0a1.081,1.081,0,1,1,0-2.163H2.524a1.081,1.081,0,0,1,0,2.163Zm2.883-3.6V1.082a1.081,1.081,0,1,1,2.163,0V2.524a1.081,1.081,0,0,1-2.163,0Z" transform="translate(38.696 46.197)" fill="#dae0f2"/>
    <g id="close-circle" transform="translate(-172.257 -194.996)">
      <path id="Vector" d="M29.167,58.333A29.167,29.167,0,1,0,0,29.167,29.252,29.252,0,0,0,29.167,58.333Z" transform="translate(241.833 257.833)" fill="none" stroke="#ed1c25" stroke-linecap="round" stroke-linejoin="round" stroke-width="5"/>
      <path id="Vector-2" data-name="Vector" d="M0,16.508,16.508,0" transform="translate(262.746 278.746)" fill="none" stroke="#ed1c25" stroke-linecap="round" stroke-linejoin="round" stroke-width="5"/>
      <path id="Vector-3" data-name="Vector" d="M16.508,16.508,0,0" transform="translate(262.746 278.746)" fill="none" stroke="#ed1c25" stroke-linecap="round" stroke-linejoin="round" stroke-width="5"/>
      <path id="Vector-4" data-name="Vector" d="M0,0H70V70H0Z" transform="translate(236 252)" fill="none" opacity="0"/>
    </g>
  </g>
</svg>