<svg xmlns="http://www.w3.org/2000/svg" width="95.046" height="80.807" viewBox="0 0 95.046 80.807">
  <g id="Group_392" data-name="Group 392" transform="translate(-949.953 -424.193)">
    <g id="Ellipse_504" data-name="Ellipse 504" transform="translate(975 435)" fill="#fff" stroke="#00c6a5" stroke-width="5">
      <circle cx="35" cy="35" r="35" stroke="none"/>
      <circle cx="35" cy="35" r="32.5" fill="none"/>
    </g>
    <path id="Union_56" data-name="Union 56" d="M3.965,9.015V7.574a1.081,1.081,0,1,1,2.163,0V9.015a1.081,1.081,0,0,1-2.163,0Zm3.6-2.887a1.081,1.081,0,0,1,0-2.163H9.01a1.081,1.081,0,1,1,0,2.163Zm-6.486,0a1.081,1.081,0,1,1,0-2.163H2.524a1.081,1.081,0,0,1,0,2.163Zm2.883-3.6V1.082a1.081,1.081,0,1,1,2.163,0V2.524a1.081,1.081,0,0,1-2.163,0Z" transform="translate(949.953 424.193)" fill="#dae0f2"/>
    <path id="Vector" d="M0,11.133,11.133,22.265,33.437,0" transform="translate(993.499 458.5)" fill="none" stroke="#00c6a5" stroke-linecap="round" stroke-linejoin="round" stroke-width="5"/>
  </g>
</svg>