<svg xmlns="http://www.w3.org/2000/svg" width="22" height="22" viewBox="0 0 22 22">
    <path d="m10.752 1.313 1.613 3.227a1.992 1.992 0 0 0 1.3.962l2.924.486c1.87.312 2.31 1.668.962 3.007l-2.271 2.273a1.99 1.99 0 0 0-.477 1.659l.651 2.814c.513 2.228-.669 3.089-2.64 1.925l-2.741-1.623a1.982 1.982 0 0 0-1.815 0l-2.741 1.623c-1.962 1.164-3.153.293-2.64-1.925l.651-2.814a1.99 1.99 0 0 0-.477-1.659L.778 8.995C-.56 7.656-.129 6.3 1.741 5.988L4.665 5.5a2 2 0 0 0 1.292-.96l1.614-3.227c.88-1.751 2.31-1.751 3.181 0z" transform="translate(1.834 1.904)" style="stroke:#292d32;stroke-linecap:round;stroke-linejoin:round;stroke-width:1.8px;fill:none"/>
</svg>
