<svg xmlns="http://www.w3.org/2000/svg" width="20.997" height="20.997" viewBox="0 0 20.997 20.997">
  <g id="video-vertical" transform="translate(-108 -384)">
    <path id="Vector" d="M6.124,17.5h5.249c4.374,0,6.124-1.75,6.124-6.124V6.124C17.5,1.75,15.747,0,11.373,0H6.124C1.75,0,0,1.75,0,6.124v5.249C0,15.747,1.75,17.5,6.124,17.5Z" transform="translate(109.75 385.75)" fill="none" stroke="#395df7" stroke-linecap="round" stroke-linejoin="round" stroke-width="1.8"/>
    <path id="Vector-2" data-name="Vector" d="M0,0V16.587" transform="translate(114.028 386.205)" fill="none" stroke="#395df7" stroke-linecap="round" stroke-linejoin="round" stroke-width="1.8"/>
    <path id="Vector-3" data-name="Vector" d="M0,0V16.587" transform="translate(122.776 386.205)" fill="none" stroke="#395df7" stroke-linecap="round" stroke-linejoin="round" stroke-width="1.8"/>
    <path id="Vector-4" data-name="Vector" d="M3.806,0H0" transform="translate(110.222 390.098)" fill="none" stroke="#395df7" stroke-linecap="round" stroke-linejoin="round" stroke-width="1.8"/>
    <path id="Vector-5" data-name="Vector" d="M4.252,0H0" transform="translate(109.776 394.498)" fill="none" stroke="#395df7" stroke-linecap="round" stroke-linejoin="round" stroke-width="1.8"/>
    <path id="Vector-6" data-name="Vector" d="M3.858,0H0" transform="translate(110.17 398.846)" fill="none" stroke="#395df7" stroke-linecap="round" stroke-linejoin="round" stroke-width="1.8"/>
    <path id="Vector-7" data-name="Vector" d="M3.806,0H0" transform="translate(123.345 390.098)" fill="none" stroke="#395df7" stroke-linecap="round" stroke-linejoin="round" stroke-width="1.8"/>
    <path id="Vector-8" data-name="Vector" d="M4.252,0H0" transform="translate(122.899 394.498)" fill="none" stroke="#395df7" stroke-linecap="round" stroke-linejoin="round" stroke-width="1.8"/>
    <path id="Vector-9" data-name="Vector" d="M9.623,0H0" transform="translate(113.223 394.498)" fill="none" stroke="#395df7" stroke-linecap="round" stroke-linejoin="round" stroke-width="1.8"/>
    <path id="Vector-10" data-name="Vector" d="M3.858,0H0" transform="translate(123.293 398.846)" fill="none" stroke="#395df7" stroke-linecap="round" stroke-linejoin="round" stroke-width="1.8"/>
    <path id="Vector-11" data-name="Vector" d="M0,0H21V21H0Z" transform="translate(108 384)" fill="none" opacity="0"/>
  </g>
</svg>
