<svg xmlns="http://www.w3.org/2000/svg" width="36.002" height="36.002" viewBox="0 0 36.002 36.002">
  <g id="call-calling" transform="translate(-172 -188)">
    <g id="call-calling-2" data-name="call-calling" transform="translate(175 191)">
      <path id="Vector" d="M29.957,24.5a3.818,3.818,0,0,1-.375,1.635,6.189,6.189,0,0,1-1.02,1.53,6.763,6.763,0,0,1-2.46,1.77,7.533,7.533,0,0,1-2.925.57,12.5,12.5,0,0,1-4.89-1.1,26.348,26.348,0,0,1-5.16-2.97,43.128,43.128,0,0,1-4.92-4.2A42.623,42.623,0,0,1,4.02,16.831a26.743,26.743,0,0,1-2.94-5.115A12.635,12.635,0,0,1,0,6.81a7.76,7.76,0,0,1,.54-2.9A6.9,6.9,0,0,1,2.265,1.41,4.4,4.4,0,0,1,5.385,0,2.819,2.819,0,0,1,6.6.27a2.445,2.445,0,0,1,1.005.84l3.48,4.905a5.134,5.134,0,0,1,.6,1.05,2.371,2.371,0,0,1,.21.915,2.036,2.036,0,0,1-.315,1.065,5.1,5.1,0,0,1-.84,1.065L9.6,11.3a.8.8,0,0,0-.24.6,1.362,1.362,0,0,0,.045.345c.045.12.09.21.12.3a12.448,12.448,0,0,0,1.4,1.92c.675.78,1.4,1.575,2.175,2.37.81.8,1.59,1.53,2.385,2.205a11.513,11.513,0,0,0,1.935,1.38c.075.03.165.075.27.12a1.036,1.036,0,0,0,.375.06.825.825,0,0,0,.615-.255l1.14-1.125a4.6,4.6,0,0,1,1.08-.84,2,2,0,0,1,1.065-.315,2.394,2.394,0,0,1,.915.2,5.8,5.8,0,0,1,1.05.585l4.965,3.525a2.275,2.275,0,0,1,.825.96A3.078,3.078,0,0,1,29.957,24.5Z" fill="none" stroke="#fff" stroke-width="3"/>
      <path id="Vector-2" data-name="Vector" d="M5.25,5.25A5.948,5.948,0,0,0,3.5,1.845,5.124,5.124,0,0,0,0,0" transform="translate(19.501 5.25)" fill="none" stroke="#fff" stroke-linecap="round" stroke-linejoin="round" stroke-width="3"/>
      <path id="Vector-3" data-name="Vector" d="M10.5,10.5A10.493,10.493,0,0,0,0,0" transform="translate(19.501)" fill="none" stroke="#fff" stroke-linecap="round" stroke-linejoin="round" stroke-width="3"/>
    </g>
    <path id="Vector-4" data-name="Vector" d="M0,0H36V36H0Z" transform="translate(172 188)" fill="none" opacity="0"/>
  </g>
</svg>
