<svg id="cloud-change" xmlns="http://www.w3.org/2000/svg" width="36.002" height="36.002" viewBox="0 0 36.002 36.002">
  <g id="Vector" transform="translate(36.002 36.002) rotate(180)" fill="none" opacity="0">
    <path d="M0,0H36V36H0Z" stroke="none"/>
    <path d="M 0.9999961853027344 0.9999961853027344 L 0.9999961853027344 35.00195693969727 L 35.00195693969727 35.00195693969727 L 35.00195693969727 0.9999961853027344 L 0.9999961853027344 0.9999961853027344 M -3.814697265625e-06 -3.814697265625e-06 L 36.00195693969727 -3.814697265625e-06 L 36.00195693969727 36.00195693969727 L -3.814697265625e-06 36.00195693969727 L -3.814697265625e-06 -3.814697265625e-06 Z" stroke="none" fill="#fff"/>
  </g>
  <path id="support" d="M35.406,18.89a15.825,15.825,0,0,0-.413-3.591l-.009-.039A16.115,16.115,0,0,0,19.269,2.928l-.018,0h-.03l-.015,0A16.031,16.031,0,0,0,3.488,15.259l-.009.039a16.025,16.025,0,0,0,.4,8.645,3.342,3.342,0,0,0,1.749,1.983,3.484,3.484,0,0,0,1.518.348,3.542,3.542,0,0,0,1.111-.18l1.379-.475a3.433,3.433,0,0,0,2.338-3.655l-.5-4.289a3.51,3.51,0,0,0-3.193-3.045l-2.142-.15A13.719,13.719,0,0,1,19.048,5.255h.173l.013,0,.016,0a13.589,13.589,0,0,1,13.088,9.225l-2.156.151A3.509,3.509,0,0,0,27,17.685l-.5,4.292a3.426,3.426,0,0,0,2.328,3.639l1.406.484a3.442,3.442,0,0,0,.653.1,13.534,13.534,0,0,1-9.708,6.179,2.192,2.192,0,0,0-1.761-.927A2.232,2.232,0,1,0,21.38,34.7,15.869,15.869,0,0,0,34.454,24.2c.037-.087.109-.152.139-.243A15.755,15.755,0,0,0,35.406,18.89ZM8.1,16.955a1.163,1.163,0,0,1,1.057,1l.5,4.267a1.119,1.119,0,0,1-.769,1.189l-1.372.472a1.193,1.193,0,0,1-.877-.059,1.038,1.038,0,0,1-.548-.618,13.732,13.732,0,0,1-.524-6.428Zm23.741,6.87a1.172,1.172,0,0,1-.86.065l-1.4-.482a1.112,1.112,0,0,1-.759-1.173l.5-4.271a1.162,1.162,0,0,1,1.043-1.009l2.547-.178a13.544,13.544,0,0,1-.481,6.252c-.006.017-.02.028-.026.046-.042.129-.108.244-.153.372a1.039,1.039,0,0,1-.411.377Z" transform="translate(-1.238 -1.422)" fill="#fff" stroke="#fff" stroke-linecap="round" stroke-width="1"/>
</svg>
