<svg xmlns="http://www.w3.org/2000/svg" width="29.996" height="29.996" viewBox="0 0 29.996 29.996">
    <path d="M11.249 0h-2.5C2.5 0 0 2.5 0 8.749v7.5C0 22.5 2.5 25 8.749 25h7.5C22.5 25 25 22.5 25 16.248v-2.5" transform="translate(2.5 2.5)" style="stroke:#395df7;stroke-linecap:round;stroke-linejoin:round;stroke-width:2px;fill:none"/>
    <path data-name="Vector" d="m11.237 1.589-9.848 9.849a3.39 3.39 0 0 0-.825 1.65l-.538 3.761a1.78 1.78 0 0 0 2.125 2.125l3.762-.537a3.5 3.5 0 0 0 1.65-.825l9.849-9.849c1.7-1.7 2.5-3.675 0-6.174s-4.475-1.7-6.175 0z" transform="translate(8.81 2.186)" style="stroke:#395df7;stroke-linecap:round;stroke-linejoin:round;stroke-width:2px;fill:none"/>
    <path data-name="Vector" d="M0 0a8.929 8.929 0 0 0 6.174 6.174" transform="translate(18.635 5.187)" style="stroke:#395df7;stroke-linecap:round;stroke-linejoin:round;stroke-width:2px;fill:none"/>
</svg>
