<svg id="play" xmlns="http://www.w3.org/2000/svg" width="30.001" height="30.001" viewBox="0 0 30.001 30.001">
  <path id="Vector" d="M0,17.675A12.486,12.486,0,0,0,0,0" transform="translate(23.838 6.163)" fill="none" stroke="#fff" stroke-linecap="round" stroke-linejoin="round" stroke-width="2"/>
  <path id="Vector-2" data-name="Vector" d="M3.666,0a12.486,12.486,0,0,0,0,17.675" transform="translate(2.497 6.163)" fill="none" stroke="#fff" stroke-linecap="round" stroke-linejoin="round" stroke-width="2"/>
  <path id="Vector-3" data-name="Vector" d="M0,0A12.584,12.584,0,0,0,4.125.688,12.921,12.921,0,0,0,8.25,0" transform="translate(10.875 26.763)" fill="none" stroke="#fff" stroke-linecap="round" stroke-linejoin="round" stroke-width="2"/>
  <path id="Vector-4" data-name="Vector" d="M0,.688A12.584,12.584,0,0,1,4.125,0,12.584,12.584,0,0,1,8.25.688" transform="translate(10.875 2.55)" fill="none" stroke="#fff" stroke-linecap="round" stroke-linejoin="round" stroke-width="2"/>
  <path id="Vector-5" data-name="Vector" d="M0,5.005V2.918C0,.318,1.838-.745,4.088.555L5.9,1.605l1.813,1.05c2.25,1.3,2.25,3.425,0,4.725L5.9,8.43,4.088,9.48C1.838,10.78,0,9.718,0,7.118Z" transform="translate(10.925 9.995)" fill="none" stroke="#fff" stroke-linecap="round" stroke-linejoin="round" stroke-width="2"/>
  <path id="Vector-6" data-name="Vector" d="M0,0H30V30H0Z" transform="translate(0 0)" fill="none" opacity="0"/>
</svg>
