<svg xmlns="http://www.w3.org/2000/svg" width="36.001" height="36.001" viewBox="0 0 36.001 36.001">
  <g id="sticker1" transform="translate(-3.809 -3.573)">
    <path id="Path_8737" data-name="Path 8737" d="M26.809,21.073a2.479,2.479,0,1,1,1.774-.726A2.409,2.409,0,0,1,26.809,21.073Zm-10,0a2.479,2.479,0,1,1,1.774-.726A2.409,2.409,0,0,1,16.809,21.073Zm5,10.5a9.422,9.422,0,0,1-5.424-1.65,9.8,9.8,0,0,1-3.576-4.35h18a9.806,9.806,0,0,1-3.574,4.35A9.431,9.431,0,0,1,21.809,31.574Zm0,8a17.42,17.42,0,0,1-7.024-1.424A18.11,18.11,0,0,1,5.233,28.6a17.419,17.419,0,0,1-1.424-7.024,17.433,17.433,0,0,1,1.424-7.026A18.1,18.1,0,0,1,14.785,5a17.418,17.418,0,0,1,7.024-1.424A17.433,17.433,0,0,1,28.835,5a18.084,18.084,0,0,1,9.55,9.55,17.432,17.432,0,0,1,1.424,7.026A17.418,17.418,0,0,1,38.386,28.6a18.1,18.1,0,0,1-9.55,9.552A17.435,17.435,0,0,1,21.809,39.574Zm0-4a13.491,13.491,0,0,0,9.9-4.1,13.49,13.49,0,0,0,4.1-9.9,13.49,13.49,0,0,0-4.1-9.9,13.49,13.49,0,0,0-9.9-4.1h-.6a1.888,1.888,0,0,0-.6.1,1.5,1.5,0,0,0-.4.65,2.722,2.722,0,0,0-.1.75,2.476,2.476,0,0,0,2.5,2.5,2.195,2.195,0,0,0,.824-.15,2.076,2.076,0,0,1,.776-.15,1.282,1.282,0,0,1,1,.45,1.531,1.531,0,0,1,.4,1.05,1.4,1.4,0,0,1-1.074,1.474,6.727,6.727,0,0,1-1.926.326,5.289,5.289,0,0,1-3.874-1.624,5.292,5.292,0,0,1-1.626-3.876v-.3a2.146,2.146,0,0,1,.05-.4,14.148,14.148,0,0,0-6.75,5.05,13.434,13.434,0,0,0-2.6,8.15,13.49,13.49,0,0,0,4.1,9.9A13.49,13.49,0,0,0,21.809,35.574Z" transform="translate(0 0)" fill="#fff"/>
  </g>
</svg>
