<svg xmlns="http://www.w3.org/2000/svg" width="36" height="36" viewBox="0 0 36 36">
  <g id="sticker2" transform="translate(-3 -3)">
    <path id="Path_8738" data-name="Path 8738" d="M15.6,25.05a2.231,2.231,0,1,1,1.6-.653A2.168,2.168,0,0,1,15.6,25.05Zm10.8,0A2.231,2.231,0,1,1,28,24.4,2.168,2.168,0,0,1,26.4,25.05ZM21,35.4a13.9,13.9,0,0,0,10.215-4.185A13.9,13.9,0,0,0,35.4,21a15.843,15.843,0,0,0-.135-2.093,8.716,8.716,0,0,0-.495-1.957,16.793,16.793,0,0,1-1.89.338,16.888,16.888,0,0,1-1.98.112,17.616,17.616,0,0,1-7.74-1.755,17.97,17.97,0,0,1-6.21-4.905,17.763,17.763,0,0,1-4.117,6.1A17.6,17.6,0,0,1,6.6,20.73V21a13.9,13.9,0,0,0,4.185,10.215A13.9,13.9,0,0,0,21,35.4ZM21,39a17.518,17.518,0,0,1-7.02-1.418A17.961,17.961,0,0,1,4.418,28.02,17.518,17.518,0,0,1,3,21a17.518,17.518,0,0,1,1.418-7.02A17.972,17.972,0,0,1,13.98,4.417,17.537,17.537,0,0,1,21,3a17.537,17.537,0,0,1,7.02,1.417,17.972,17.972,0,0,1,9.562,9.563A17.518,17.518,0,0,1,39,21a17.518,17.518,0,0,1-1.418,7.02,17.961,17.961,0,0,1-9.562,9.562A17.518,17.518,0,0,1,21,39ZM18.57,6.825a14.435,14.435,0,0,0,5.13,5.063A13.9,13.9,0,0,0,30.9,13.8a10.741,10.741,0,0,0,1.215-.067q.585-.068,1.215-.158A14.435,14.435,0,0,0,28.2,8.512,13.9,13.9,0,0,0,21,6.6a10.741,10.741,0,0,0-1.215.067Q19.2,6.735,18.57,6.825Zm-11.2,9.63A14.378,14.378,0,0,0,11.37,13.08a14.329,14.329,0,0,0,2.565-4.635,14.508,14.508,0,0,0-6.57,8.01Z" fill="#fff"/>
  </g>
</svg>
