<svg xmlns="http://www.w3.org/2000/svg" width="26" height="26" viewBox="0 0 26 26">
  <g id="task-square" transform="translate(-492 -316)">
    <path id="Vector" d="M0,0H5.25" transform="translate(505.689 325.62)" fill="none" stroke="#395df7" stroke-linecap="round" stroke-linejoin="round" stroke-width="1.8"/>
    <path id="Vector-2" data-name="Vector" d="M0,1.5l.75.75L3,0" transform="translate(498.988 324.059)" fill="none" stroke="#395df7" stroke-linecap="round" stroke-linejoin="round" stroke-width="1.8"/>
    <path id="Vector-3" data-name="Vector" d="M0,0H5.25" transform="translate(505.689 333.203)" fill="none" stroke="#395df7" stroke-linecap="round" stroke-linejoin="round" stroke-width="1.8"/>
    <path id="Vector-4" data-name="Vector" d="M0,1.5l.75.75L3,0" transform="translate(498.988 331.702)" fill="none" stroke="#395df7" stroke-linecap="round" stroke-linejoin="round" stroke-width="1.8"/>
    <path id="Vector-5" data-name="Vector" d="M7.7,22h6.6c5.5,0,7.7-2.2,7.7-7.7V7.7C22,2.2,19.8,0,14.3,0H7.7C2.2,0,0,2.2,0,7.7v6.6C0,19.8,2.2,22,7.7,22Z" transform="translate(494 318)" fill="none" stroke="#395df7" stroke-linecap="round" stroke-linejoin="round" stroke-width="1.8"/>
    <path id="Vector-6" data-name="Vector" d="M0,0H26V26H0Z" transform="translate(492 316)" fill="none" opacity="0"/>
  </g>
</svg>
