<svg xmlns="http://www.w3.org/2000/svg" width="26.9" height="26.9" viewBox="0 0 26.9 26.9">
  <g id="user-square" transform="translate(-748 0.9)">
    <path id="Vector" d="M13.3,5.038a12.081,12.081,0,0,1-3.4.412H3.4A12.081,12.081,0,0,1,0,5.038C.238,2.221,3.131,0,6.652,0S13.065,2.221,13.3,5.038Z" transform="translate(754.348 18.384)" fill="none" stroke="#fff" stroke-linecap="round" stroke-linejoin="round" stroke-width="1.8"/>
    <path id="Subtraction_28" data-name="Subtraction 28" d="M4.176,21.255v0a5.043,5.043,0,0,1-3.191-2.36A9.644,9.644,0,0,1,0,14.083v-6.5C0,4.816.561,2.964,1.759,1.761S4.808,0,7.581,0h6.5C14.656,0,15.2.026,15.7.075A4.441,4.441,0,0,0,15.383.8a4.433,4.433,0,0,0-.215,1.367A4.245,4.245,0,0,0,15.8,4.4a4.02,4.02,0,0,0,.825.987A4.246,4.246,0,0,0,19.5,6.5a3.97,3.97,0,0,0,1.351-.228,3.957,3.957,0,0,0,.737-.313c.051.508.075,1.056.075,1.625v6.5a9.634,9.634,0,0,1-.985,4.81,5.026,5.026,0,0,1-3.2,2.358,5.048,5.048,0,0,0-2.092-3.571,7.565,7.565,0,0,0-4.56-1.46c-3.486,0-6.407,2.212-6.652,5.033Zm6.654-15.84A3.884,3.884,0,1,0,14.708,9.3,3.882,3.882,0,0,0,10.831,5.415Z" transform="translate(750.167 2.165)" fill="none" stroke="#fff" stroke-linecap="round" stroke-linejoin="round" stroke-width="1.8"/>
    <path id="Vector-2" data-name="Vector" d="M7.757,3.878A3.878,3.878,0,1,1,3.878,0,3.884,3.884,0,0,1,7.757,3.878Z" transform="translate(757.122 7.583)" fill="none" stroke="#fff" stroke-linecap="round" stroke-linejoin="round" stroke-width="1.8"/>
    <path id="Vector-3" data-name="Vector" d="M0,0H26V26H0Z" transform="translate(748)" fill="none" opacity="0"/>
    <g id="Group" transform="translate(768.053 2.73)">
      <path id="Vector-4" data-name="Vector" d="M3.228,0H0" transform="translate(0 1.582)" fill="none" stroke="#fff" stroke-linecap="round" stroke-linejoin="round" stroke-width="1.8"/>
      <path id="Vector-5" data-name="Vector" d="M0,0V3.239" transform="translate(1.614)" fill="none" stroke="#fff" stroke-linecap="round" stroke-linejoin="round" stroke-width="1.8"/>
    </g>
    <path id="Vector-6" data-name="Vector" d="M8.667,4.333a3.893,3.893,0,0,1-.13,1.007,4.045,4.045,0,0,1-.5,1.224A4.223,4.223,0,0,1,5.688,8.439a3.993,3.993,0,0,1-1.354.228A4.248,4.248,0,0,1,1.452,7.551a3.991,3.991,0,0,1-.823-.986A4.248,4.248,0,0,1,0,4.333,4.391,4.391,0,0,1,.217,2.968,4.274,4.274,0,0,1,1.224,1.311,4.328,4.328,0,0,1,4.333,0,4.273,4.273,0,0,1,7.551,1.441,4.316,4.316,0,0,1,8.667,4.333Z" transform="translate(765.333)" fill="none" stroke="#fff" stroke-linecap="round" stroke-linejoin="round" stroke-width="1.8"/>
  </g>
</svg>
