<svg xmlns="http://www.w3.org/2000/svg" width="24" height="24" viewBox="0 0 24 24">
    <path d="M7 20h6c5 0 7-2 7-7V7c0-5-2-7-7-7H7C2 0 0 2 0 7v6c0 5 2 7 7 7z" transform="translate(2 2)" style="stroke:#00c6a5;stroke-linecap:round;stroke-linejoin:round;stroke-width:1.8px;fill:none"/>
    <path data-name="Vector" d="M0 0v18.96" transform="translate(6.89 2.52)" style="stroke:#00c6a5;stroke-linecap:round;stroke-linejoin:round;stroke-width:1.8px;fill:none"/>
    <path data-name="Vector" d="M0 0v18.96" transform="translate(16.89 2.52)" style="stroke:#00c6a5;stroke-linecap:round;stroke-linejoin:round;stroke-width:1.8px;fill:none"/>
    <path data-name="Vector" d="M4.35 0H0" transform="translate(2.54 6.97)" style="stroke:#00c6a5;stroke-linecap:round;stroke-linejoin:round;stroke-width:1.8px;fill:none"/>
    <path data-name="Vector" d="M4.86 0H0" transform="translate(2.03 12)" style="stroke:#00c6a5;stroke-linecap:round;stroke-linejoin:round;stroke-width:1.8px;fill:none"/>
    <path data-name="Vector" d="M4.41 0H0" transform="translate(2.48 16.97)" style="stroke:#00c6a5;stroke-linecap:round;stroke-linejoin:round;stroke-width:1.8px;fill:none"/>
    <path data-name="Vector" d="M4.35 0H0" transform="translate(17.54 6.97)" style="stroke:#00c6a5;stroke-linecap:round;stroke-linejoin:round;stroke-width:1.8px;fill:none"/>
    <path data-name="Vector" d="M4.86 0H0" transform="translate(17.03 12)" style="stroke:#00c6a5;stroke-linecap:round;stroke-linejoin:round;stroke-width:1.8px;fill:none"/>
    <path data-name="Vector" d="M11 0H0" transform="translate(5.97 12)" style="stroke:#00c6a5;stroke-linecap:round;stroke-linejoin:round;stroke-width:1.8px;fill:none"/>
    <path data-name="Vector" d="M4.41 0H0" transform="translate(17.48 16.97)" style="stroke:#00c6a5;stroke-linecap:round;stroke-linejoin:round;stroke-width:1.8px;fill:none"/>
</svg>
