<svg xmlns="http://www.w3.org/2000/svg" width="35.995" height="35.995" viewBox="0 0 35.995 35.995">
  <path id="whatsapp" d="M50.324,32a17.6,17.6,0,0,0-17.67,17.534,17.353,17.353,0,0,0,2.536,9.054L32,68l9.783-3.108A17.577,17.577,0,1,0,50.324,32Zm8.787,24.193a4.564,4.564,0,0,1-3.125,2.014c-.829.044-.852.642-5.37-1.32s-7.235-6.737-7.45-7.044a8.666,8.666,0,0,1-1.667-4.7,5.007,5.007,0,0,1,1.72-3.674,1.731,1.731,0,0,1,1.224-.515c.356-.006.586-.011.849,0s.658-.055,1,.855,1.16,3.146,1.265,3.374a.819.819,0,0,1,.008.785,3.068,3.068,0,0,1-.479.73c-.236.253-.5.566-.706.759-.235.214-.48.448-.233.905a13.522,13.522,0,0,0,2.393,3.193,12.329,12.329,0,0,0,3.543,2.356c.443.241.708.215.982-.075s1.176-1.265,1.494-1.7.616-.351,1.024-.187,2.584,1.33,3.027,1.571.739.364.844.554A3.711,3.711,0,0,1,59.111,56.193Z" transform="translate(-32 -32)" fill="#fff"/>
</svg>
