<svg xmlns="http://www.w3.org/2000/svg" width="26" height="26" viewBox="0 0 26 26">
  <g id="call-calling" transform="translate(-172 -188)">
    <g id="call-calling-2" data-name="call-calling" transform="translate(174.167 190.167)">
      <path id="Vector" d="M21.634,17.691a2.757,2.757,0,0,1-.271,1.181,4.47,4.47,0,0,1-.737,1.1,4.884,4.884,0,0,1-1.777,1.278,5.44,5.44,0,0,1-2.112.412,9.028,9.028,0,0,1-3.532-.791,19.028,19.028,0,0,1-3.727-2.145A31.146,31.146,0,0,1,5.926,15.7,30.782,30.782,0,0,1,2.9,12.155,19.314,19.314,0,0,1,.78,8.461,9.125,9.125,0,0,1,0,4.918,5.6,5.6,0,0,1,.39,2.828,4.986,4.986,0,0,1,1.636,1.018,3.174,3.174,0,0,1,3.889,0a2.036,2.036,0,0,1,.877.2A1.766,1.766,0,0,1,5.493.8L8.006,4.344a3.707,3.707,0,0,1,.433.758,1.712,1.712,0,0,1,.152.661,1.471,1.471,0,0,1-.227.769,3.685,3.685,0,0,1-.607.769l-.823.856a.58.58,0,0,0-.173.433.984.984,0,0,0,.033.249c.032.087.065.152.087.217a8.99,8.99,0,0,0,1.007,1.387c.487.563,1.007,1.138,1.571,1.712.585.574,1.148,1.1,1.723,1.592a8.314,8.314,0,0,0,1.4,1c.054.022.119.054.195.087a.748.748,0,0,0,.271.043.6.6,0,0,0,.444-.184l.823-.812a3.324,3.324,0,0,1,.78-.607,1.443,1.443,0,0,1,.769-.227,1.729,1.729,0,0,1,.661.141,4.19,4.19,0,0,1,.758.423l3.586,2.546a1.643,1.643,0,0,1,.6.693A2.223,2.223,0,0,1,21.634,17.691Z" fill="none" stroke="#8a8e99" stroke-width="1.8"/>
      <path id="Vector-2" data-name="Vector" d="M3.792,3.792A4.3,4.3,0,0,0,2.524,1.333,3.7,3.7,0,0,0,0,0" transform="translate(14.083 3.792)" fill="none" stroke="#8a8e99" stroke-linecap="round" stroke-linejoin="round" stroke-width="1.8"/>
      <path id="Vector-3" data-name="Vector" d="M7.583,7.583A7.578,7.578,0,0,0,0,0" transform="translate(14.083)" fill="none" stroke="#8a8e99" stroke-linecap="round" stroke-linejoin="round" stroke-width="1.8"/>
    </g>
    <path id="Vector-4" data-name="Vector" d="M0,0H26V26H0Z" transform="translate(172 188)" fill="none" opacity="0"/>
  </g>
</svg>
