<svg xmlns="http://www.w3.org/2000/svg" width="40.004" height="40.004" viewBox="0 0 40.004 40.004">
  <g id="book-saved" transform="translate(-108 -253)">
    <path id="Vector" d="M33.337,3.346V23.465a3.425,3.425,0,0,1-2.9,3.3l-.55.067a42.439,42.439,0,0,0-12.435,4.1,1.8,1.8,0,0,1-1.6,0l-.067-.033a42.825,42.825,0,0,0-12.4-4.067L2.9,26.765a3.425,3.425,0,0,1-2.9-3.3V3.33A3.279,3.279,0,0,1,3.6.013a31.265,31.265,0,0,1,11.768,3.9l.417.25a1.847,1.847,0,0,0,1.767,0l.283-.183A25.7,25.7,0,0,1,21.669,2.1V8.9L25,6.68,28.336,8.9V.2A12.936,12.936,0,0,1,29.62.029h.1A3.284,3.284,0,0,1,33.337,3.346Z" transform="translate(111.334 257.438)" fill="none" stroke="#00c6a5" stroke-linecap="round" stroke-linejoin="round" stroke-width="3"/>
    <path id="Vector-2" data-name="Vector" d="M0,0V25" transform="translate(128.002 262.151)" fill="none" stroke="#00c6a5" stroke-linecap="round" stroke-linejoin="round" stroke-width="3"/>
    <path id="Vector-3" data-name="Vector" d="M6.667,0V8.7L3.334,6.484,0,8.7V1.9A33.689,33.689,0,0,1,6.667,0Z" transform="translate(133.002 257.634)" fill="none" stroke="#00c6a5" stroke-linecap="round" stroke-linejoin="round" stroke-width="3"/>
    <path id="Vector-4" data-name="Vector" d="M0,0H40V40H0Z" transform="translate(108 253)" fill="none" opacity="0"/>
  </g>
</svg>
