<svg xmlns="http://www.w3.org/2000/svg" width="136.605" height="136.605" viewBox="0 0 136.605 136.605">
    <g style="opacity:.148">
        <path d="M0 34.251v28.288C0 72.9 0 72.9 9.79 79.5l26.923 15.54a16.277 16.277 0 0 0 14.685 0L78.32 79.5c9.79-6.6 9.79-6.6 9.79-16.962V34.251c0-10.359 0-10.359-9.79-16.962L51.4 1.75a16.277 16.277 0 0 0-14.685 0L9.79 17.289C0 23.892 0 23.892 0 34.251z" transform="translate(24.247 28.474)" style="stroke:#fff;stroke-linecap:round;stroke-linejoin:round;stroke-width:5px;fill:none"/>
        <path data-name="Vector" d="M62.611 32.045V17.076Q62.611 0 45.535 0H17.076Q0 0 0 17.076v14.571" transform="translate(36.997 11.384)" style="stroke:#fff;stroke-linecap:round;stroke-linejoin:round;stroke-width:5px;fill:none"/>
        <path data-name="Vector" d="m22.272 2.305 3.244 5.066a4.958 4.958 0 0 0 2.5 1.821l5.806 1.48c3.586.911 4.554 3.984 2.22 6.83l-3.814 4.61a5.108 5.108 0 0 0-.968 2.96l.342 5.976c.228 3.7-2.391 5.578-5.806 4.212l-5.578-2.22a4.911 4.911 0 0 0-3.131 0l-5.578 2.22c-3.415 1.366-6.033-.569-5.806-4.212l.342-5.976a4.979 4.979 0 0 0-.968-2.96L1.269 17.5c-2.334-2.846-1.366-5.92 2.22-6.83l5.806-1.48a4.813 4.813 0 0 0 2.5-1.821l3.244-5.066c2.054-3.071 5.241-3.071 7.233.002z" transform="translate(49.616 60.249)" style="stroke:#fff;stroke-linecap:round;stroke-linejoin:round;stroke-width:5px;fill:none"/>
    </g>
</svg>
