<svg xmlns="http://www.w3.org/2000/svg" width="22" height="22" viewBox="0 0 22 22">
  <g id="messages" transform="translate(-556 -314)">
    <g id="Group" transform="translate(557.833 319.5)">
      <path id="Vector" d="M14.648,4.391V8.058a5.56,5.56,0,0,1-.037.688c-.211,2.475-1.668,3.7-4.354,3.7H9.891a.738.738,0,0,0-.587.293L8.2,14.208a1.037,1.037,0,0,1-1.76,0l-1.1-1.467a.847.847,0,0,0-.587-.293H4.391C1.467,12.448,0,11.724,0,8.058V4.391C0,1.705,1.238.248,3.7.037A5.56,5.56,0,0,1,4.391,0h5.867Q14.644,0,14.648,4.391Z" fill="none" stroke="#838691" stroke-linecap="round" stroke-linejoin="round" stroke-width="1.8"/>
    </g>
    <path id="Vector-2" data-name="Vector" d="M14.612,4.391V8.058q0,4.042-3.7,4.354a5.56,5.56,0,0,0,.037-.687V8.058q0-4.386-4.391-4.391H.688A5.559,5.559,0,0,0,0,3.7C.211,1.238,1.668,0,4.354,0h5.867Q14.607,0,14.612,4.391Z" transform="translate(561.537 315.833)" fill="none" stroke="#838691" stroke-linecap="round" stroke-linejoin="round" stroke-width="1.8"/>
    <path id="Vector-3" data-name="Vector" d="M0,0H22V22H0Z" transform="translate(556 314)" fill="none" opacity="0"/>
    <path id="Vector-4" data-name="Vector" d="M.5.5H.5" transform="translate(567.875 325.646)" fill="none" stroke="#838691" stroke-linecap="round" stroke-linejoin="round" stroke-width="1.8"/>
    <path id="Vector-5" data-name="Vector" d="M.5.5H.5" transform="translate(564.667 325.646)" fill="none" stroke="#838691" stroke-linecap="round" stroke-linejoin="round" stroke-width="1.8"/>
    <path id="Vector-6" data-name="Vector" d="M.5.5H.5" transform="translate(561.459 325.646)" fill="none" stroke="#838691" stroke-linecap="round" stroke-linejoin="round" stroke-width="1.8"/>
  </g>
</svg>
