<svg xmlns="http://www.w3.org/2000/svg" width="22" height="22" viewBox="0 0 22 22">
  <g id="task-square" transform="translate(-492 -316)">
    <path id="Vector" d="M0,0H4.813" transform="translate(503.339 324.14)" fill="none" stroke="#838691" stroke-linecap="round" stroke-linejoin="round" stroke-width="1.8"/>
    <path id="Vector-2" data-name="Vector" d="M0,1.375l.688.688L2.75,0" transform="translate(497.848 322.765)" fill="none" stroke="#838691" stroke-linecap="round" stroke-linejoin="round" stroke-width="1.8"/>
    <path id="Vector-3" data-name="Vector" d="M0,0H4.813" transform="translate(503.339 330.557)" fill="none" stroke="#838691" stroke-linecap="round" stroke-linejoin="round" stroke-width="1.8"/>
    <path id="Vector-4" data-name="Vector" d="M0,1.375l.688.687L2.75,0" transform="translate(497.848 329.182)" fill="none" stroke="#838691" stroke-linecap="round" stroke-linejoin="round" stroke-width="1.8"/>
    <path id="Vector-5" data-name="Vector" d="M6.417,18.333h5.5c4.583,0,6.417-1.833,6.417-6.417v-5.5C18.333,1.833,16.5,0,11.917,0h-5.5C1.833,0,0,1.833,0,6.417v5.5C0,16.5,1.833,18.333,6.417,18.333Z" transform="translate(493.833 317.833)" fill="none" stroke="#838691" stroke-linecap="round" stroke-linejoin="round" stroke-width="1.8"/>
    <path id="Vector-6" data-name="Vector" d="M0,0H22V22H0Z" transform="translate(492 316)" fill="none" opacity="0"/>
  </g>
</svg>
