<svg xmlns="http://www.w3.org/2000/svg" xmlns:xlink="http://www.w3.org/1999/xlink" width="195" height="230" viewBox="0 0 195 230">
  <defs>
    <linearGradient id="linear-gradient" x1="0.119" y1="0.107" x2="0.866" y2="0.895" gradientUnits="objectBoundingBox">
      <stop offset="0" stop-color="#7b93f7"/>
      <stop offset="1" stop-color="#395df7"/>
    </linearGradient>
    <clipPath id="clip-path">
      <rect id="Rectangle_3230" data-name="Rectangle 3230" width="195" height="230" rx="15" transform="translate(700 129)" fill="url(#linear-gradient)"/>
    </clipPath>
  </defs>
  <g id="Mask_Group_11" data-name="Mask Group 11" transform="translate(-700 -129)" clip-path="url(#clip-path)">
    <g id="book-square" transform="translate(208 34.395)" opacity="0.062">
      <path id="Vector" d="M39.843,113.837H73.994c28.459,0,39.843-11.384,39.843-39.843V39.843C113.837,11.384,102.454,0,73.994,0H39.843C11.384,0,0,11.384,0,39.843V73.994C0,102.454,11.384,113.837,39.843,113.837Z" transform="translate(503.384 199.384)" fill="none" stroke="#fff" stroke-linecap="round" stroke-linejoin="round" stroke-width="5"/>
      <g id="Group" transform="translate(523.988 223.834)">
        <path id="Vector-2" data-name="Vector" d="M72.628,51.081V7.31A7.131,7.131,0,0,0,64.774.082h-.228c-7.627.626-19.182,4.554-25.67,8.595l-.626.4a4.223,4.223,0,0,1-3.871,0l-.911-.569C27.036,4.464,15.482.651,7.855.025A7.162,7.162,0,0,0,0,7.253V51.081a7.436,7.436,0,0,0,6.318,7.172l1.024.171A92.208,92.208,0,0,1,34.322,67.3l.171.057a3.743,3.743,0,0,0,3.472,0c6.944-3.87,19.182-7.855,27.093-8.936l1.2-.171A7.391,7.391,0,0,0,72.628,51.081Z" transform="translate(0 0)" fill="none" stroke="#fff" stroke-linecap="round" stroke-linejoin="round" stroke-width="5"/>
        <path id="Vector-3" data-name="Vector" d="M0,0V54.414" transform="translate(36.314 10.27)" fill="none" stroke="#fff" stroke-linecap="round" stroke-linejoin="round" stroke-width="5"/>
      </g>
      <path id="Vector-4" data-name="Vector" d="M0,0H136.6V136.6H0Z" transform="translate(492 188)" fill="none" opacity="0"/>
    </g>
  </g>
</svg>
