<svg xmlns="http://www.w3.org/2000/svg" width="22" height="22" viewBox="0 0 22 22">
  <g id="profile-2user" transform="translate(-172 -252)">
    <path id="Vector" d="M4.217,8.131a1.666,1.666,0,0,0-.3,0,4.075,4.075,0,1,1,.3,0Z" transform="translate(176.18 253.833)" fill="none" stroke="#636467" stroke-linecap="round" stroke-linejoin="round" stroke-width="1.8"/>
    <path id="Vector-2" data-name="Vector" d="M.119,0A3.206,3.206,0,0,1,3.327,3.208,3.213,3.213,0,0,1,.238,6.417a1.035,1.035,0,0,0-.238,0" transform="translate(186.923 255.667)" fill="none" stroke="#636467" stroke-linecap="round" stroke-linejoin="round" stroke-width="1.8"/>
    <path id="Vector-3" data-name="Vector" d="M1.664,1.258c-2.218,1.485-2.218,3.9,0,5.381a8.952,8.952,0,0,0,9.176,0c2.218-1.485,2.218-3.9,0-5.381A8.994,8.994,0,0,0,1.664,1.258Z" transform="translate(174.15 264.089)" fill="none" stroke="#636467" stroke-linecap="round" stroke-linejoin="round" stroke-width="1.8"/>
    <path id="Vector-4" data-name="Vector" d="M0,5.5a4.434,4.434,0,0,0,1.8-.8A2.322,2.322,0,0,0,1.8.788,4.559,4.559,0,0,0,.028,0" transform="translate(188.812 264.833)" fill="none" stroke="#636467" stroke-linecap="round" stroke-linejoin="round" stroke-width="1.8"/>
    <path id="Vector-5" data-name="Vector" d="M0,0H22V22H0Z" transform="translate(194 274) rotate(180)" fill="none" opacity="0"/>
  </g>
</svg>
