<svg xmlns="http://www.w3.org/2000/svg" width="22" height="22" viewBox="0 0 22 22">
  <g id="award" transform="translate(-428 -188)">
    <path id="Vector" d="M0,5.516v4.556C0,11.74,0,11.74,1.577,12.8l4.336,2.5a2.621,2.621,0,0,0,2.365,0l4.336-2.5c1.577-1.063,1.577-1.063,1.577-2.732V5.516c0-1.668,0-1.668-1.577-2.732L8.278.282a2.621,2.621,0,0,0-2.365,0l-4.336,2.5C0,3.848,0,3.848,0,5.516Z" transform="translate(431.905 192.586)" fill="none" stroke="#636467" stroke-linecap="round" stroke-linejoin="round" stroke-width="1.8"/>
    <path id="Vector-2" data-name="Vector" d="M10.083,5.161V2.75A2.431,2.431,0,0,0,7.333,0H2.75A2.431,2.431,0,0,0,0,2.75V5.1" transform="translate(433.958 189.833)" fill="none" stroke="#636467" stroke-linecap="round" stroke-linejoin="round" stroke-width="1.8"/>
    <path id="Vector-3" data-name="Vector" d="M3.587.371l.522.816a.8.8,0,0,0,.4.293l.935.238a.633.633,0,0,1,.358,1.1l-.614.743a.823.823,0,0,0-.156.477L5.09,5a.631.631,0,0,1-.935.678l-.9-.358a.791.791,0,0,0-.5,0l-.9.358A.633.633,0,0,1,.919,5l.055-.963a.8.8,0,0,0-.156-.477L.2,2.819a.633.633,0,0,1,.358-1.1L1.5,1.48a.775.775,0,0,0,.4-.293L2.423.371A.642.642,0,0,1,3.587.371Z" transform="translate(435.991 197.703)" fill="none" stroke="#636467" stroke-linecap="round" stroke-linejoin="round" stroke-width="1.8"/>
    <path id="Vector-4" data-name="Vector" d="M0,0H22V22H0Z" transform="translate(450 210) rotate(180)" fill="none" opacity="0"/>
  </g>
</svg>
