<svg xmlns="http://www.w3.org/2000/svg" width="26.004" height="26.004" viewBox="0 0 26.004 26.004">
  <g id="mouse-circle" transform="translate(-620 -636)">
    <path id="Vector" d="M8.614,5.226l-1.766.6a1.631,1.631,0,0,0-1.04,1.04l-.6,1.766A1.643,1.643,0,0,1,2.08,8.6l-2-6.447A1.646,1.646,0,0,1,2.134.079l6.458,2A1.654,1.654,0,0,1,8.614,5.226Z" transform="translate(634.096 650.104)" fill="none" stroke="#636467" stroke-linecap="round" stroke-linejoin="round" stroke-width="1.8"/>
    <path id="Vector-2" data-name="Vector" d="M21.67,10.835A10.835,10.835,0,1,0,10.835,21.67" transform="translate(622.167 638.167)" fill="none" stroke="#636467" stroke-linecap="round" stroke-linejoin="round" stroke-width="1.8"/>
    <path id="Vector-3" data-name="Vector" d="M0,0H26V26H0Z" transform="translate(620 636)" fill="none" opacity="0"/>
  </g>
</svg>
