<svg xmlns="http://www.w3.org/2000/svg" width="22" height="22" viewBox="0 0 22 22">
  <g id="people" transform="translate(-620 -252)">
    <g id="Group" transform="translate(634.052 253.833)">
      <path id="Vector" d="M2.447,4.73a.555.555,0,0,0-.174,0,2.37,2.37,0,1,1,.174,0Z" fill="none" stroke="#fff" stroke-linecap="round" stroke-linejoin="round" stroke-width="1.8"/>
      <path id="Vector-2" data-name="Vector" d="M.028,4.528a5.165,5.165,0,0,0,3.612-.66,1.752,1.752,0,0,0,0-3.135A5.2,5.2,0,0,0,0,.083" transform="translate(1.476 6.875)" fill="none" stroke="#fff" stroke-linecap="round" stroke-linejoin="round" stroke-width="1.8"/>
    </g>
    <g id="Group-2" data-name="Group" transform="translate(621.836 253.833)">
      <path id="Vector-3" data-name="Vector" d="M2.283,4.73a.555.555,0,0,1,.174,0,2.37,2.37,0,1,0-.174,0Z" transform="translate(1.354)" fill="none" stroke="#fff" stroke-linecap="round" stroke-linejoin="round" stroke-width="1.8"/>
      <path id="Vector-4" data-name="Vector" d="M4.581,4.528a5.165,5.165,0,0,1-3.612-.66,1.752,1.752,0,0,1,0-3.135A5.2,5.2,0,0,1,4.609.083" transform="translate(0 6.875)" fill="none" stroke="#fff" stroke-linecap="round" stroke-linejoin="round" stroke-width="1.8"/>
    </g>
    <g id="Group-3" data-name="Group" transform="translate(627.363 260.681)">
      <path id="Vector-5" data-name="Vector" d="M2.447,4.73a.555.555,0,0,0-.174,0,2.37,2.37,0,1,1,.174,0Z" transform="translate(1.189 0)" fill="none" stroke="#fff" stroke-linecap="round" stroke-linejoin="round" stroke-width="1.8"/>
      <path id="Vector-6" data-name="Vector" d="M.969.729a1.752,1.752,0,0,0,0,3.135,5.2,5.2,0,0,0,5.335,0A1.752,1.752,0,0,0,6.3.729,5.246,5.246,0,0,0,.969.729Z" transform="translate(0 6.889)" fill="none" stroke="#fff" stroke-linecap="round" stroke-linejoin="round" stroke-width="1.8"/>
    </g>
    <path id="Vector-7" data-name="Vector" d="M0,0H22V22H0Z" transform="translate(620 252)" fill="none" opacity="0"/>
  </g>
</svg>
