<svg xmlns="http://www.w3.org/2000/svg" width="22" height="22" viewBox="0 0 22 22">
  <g id="note-favorite" transform="translate(-108 -380)">
    <path id="Vector" d="M0,0V2.75" transform="translate(115.333 381.833)" fill="none" stroke="#636467" stroke-linecap="round" stroke-linejoin="round" stroke-width="1.8"/>
    <path id="Vector-2" data-name="Vector" d="M0,0V2.75" transform="translate(122.667 381.833)" fill="none" stroke="#636467" stroke-linecap="round" stroke-linejoin="round" stroke-width="1.8"/>
    <path id="Vector-3" data-name="Vector" d="M16.5,4.583v4.7a4.8,4.8,0,0,0-7.095,6.252,4.827,4.827,0,0,0,1.3,1.421H4.583C1.375,16.958,0,15.125,0,12.375V4.583C0,1.833,1.375,0,4.583,0h7.333C15.125,0,16.5,1.833,16.5,4.583Z" transform="translate(110.75 383.208)" fill="none" stroke="#636467" stroke-linecap="round" stroke-linejoin="round" stroke-width="1.8"/>
    <path id="Vector-4" data-name="Vector" d="M0,0H5.5" transform="translate(114.417 390.083)" fill="none" stroke="#636467" stroke-linecap="round" stroke-linejoin="round" stroke-width="1.8"/>
    <path id="Vector-5" data-name="Vector" d="M0,0H2.4" transform="translate(114.417 394.667)" fill="none" stroke="#636467" stroke-linecap="round" stroke-linejoin="round" stroke-width="1.8"/>
    <path id="Vector-6" data-name="Vector" d="M9.625,4.813a4.744,4.744,0,0,1-.7,2.475,4.254,4.254,0,0,1-.953,1.137A4.771,4.771,0,0,1,2,8.708,4.827,4.827,0,0,1,.7,7.288,4.776,4.776,0,0,1,1.806,1.063,4.809,4.809,0,0,1,9.625,4.813Z" transform="translate(119.458 391.458)" fill="none" stroke="#636467" stroke-linecap="round" stroke-linejoin="round" stroke-width="1.8"/>
    <path id="Vector-7" data-name="Vector" d="M2.292,4.583A2.293,2.293,0,0,1,4.583,2.292,2.293,2.293,0,0,1,2.292,0,2.293,2.293,0,0,1,0,2.292,2.293,2.293,0,0,1,2.292,4.583Z" transform="translate(121.979 393.979)" fill="none" stroke="#636467" stroke-linecap="round" stroke-linejoin="round" stroke-width="1.8"/>
    <path id="Vector-8" data-name="Vector" d="M0,0H22V22H0Z" transform="translate(108 380)" fill="none" opacity="0"/>
  </g>
</svg>
