<svg xmlns="http://www.w3.org/2000/svg" width="22" height="22" viewBox="0 0 22 22">
  <g id="receipt-item" transform="translate(-300 -188)">
    <path id="Vector" d="M5.5,3.667V5.885A2.2,2.2,0,0,1,3.135,8.25H0V1.842A1.85,1.85,0,0,1,1.852,0,3.662,3.662,0,0,1,5.5,3.667Z" transform="translate(314.667 189.833)" fill="none" stroke="#636467" stroke-linecap="round" stroke-linejoin="round" stroke-width="1.8"/>
    <path id="Vector-2" data-name="Vector" d="M0,4.583V17.417a.914.914,0,0,0,1.467.733l1.567-1.173a.924.924,0,0,1,1.21.092L5.766,18.6a.924.924,0,0,0,1.3,0l1.54-1.54A.909.909,0,0,1,9.8,16.977l1.568,1.173a.919.919,0,0,0,1.467-.733V1.833A1.839,1.839,0,0,1,14.667,0h-11C.917,0,0,1.641,0,3.667Z" transform="translate(301.833 189.833)" fill="none" stroke="#636467" stroke-linecap="round" stroke-linejoin="round" stroke-width="1.8"/>
    <path id="Vector-3" data-name="Vector" d="M0,0H2.75" transform="translate(308.25 199.926)" fill="none" stroke="#636467" stroke-linecap="round" stroke-linejoin="round" stroke-width="1.8"/>
    <path id="Vector-4" data-name="Vector" d="M0,0H2.75" transform="translate(308.25 196.259)" fill="none" stroke="#636467" stroke-linecap="round" stroke-linejoin="round" stroke-width="1.8"/>
    <path id="Vector-5" data-name="Vector" d="M0,0H22V22H0Z" transform="translate(300 188)" fill="none" opacity="0"/>
    <path id="Vector-6" data-name="Vector" d="M0,0H.008" transform="translate(305.496 199.917)" fill="none" stroke="#636467" stroke-linecap="round" stroke-linejoin="round" stroke-width="1.8"/>
    <path id="Vector-7" data-name="Vector" d="M0,0H.008" transform="translate(305.496 196.25)" fill="none" stroke="#636467" stroke-linecap="round" stroke-linejoin="round" stroke-width="1.8"/>
  </g>
</svg>
