<svg xmlns="http://www.w3.org/2000/svg" width="22" height="22" viewBox="0 0 22 22">
  <g id="setting" transform="translate(-236 -188)">
    <path id="Vector" d="M0,6.417v5.289c0,1.943,0,1.943,1.833,3.181L6.875,17.8a3.03,3.03,0,0,0,2.75,0l5.042-2.915C16.5,13.649,16.5,13.649,16.5,11.715v-5.3c0-1.934,0-1.934-1.833-3.172L9.625.33a3.03,3.03,0,0,0-2.75,0L1.833,3.245C0,4.483,0,4.482,0,6.417Z" transform="translate(238.75 189.934)" fill="none" stroke="#636467" stroke-linecap="round" stroke-linejoin="round" stroke-width="1.8"/>
    <path id="Vector-2" data-name="Vector" d="M5.5,2.75A2.75,2.75,0,1,1,2.75,0,2.75,2.75,0,0,1,5.5,2.75Z" transform="translate(244.25 196.25)" fill="none" stroke="#636467" stroke-linecap="round" stroke-linejoin="round" stroke-width="1.8"/>
    <path id="Vector-3" data-name="Vector" d="M0,0H22V22H0Z" transform="translate(236 188)" fill="none" opacity="0"/>
  </g>
</svg>
