<svg xmlns="http://www.w3.org/2000/svg" width="22" height="22" viewBox="0 0 22 22">
  <g id="eye" transform="translate(-108 -188)">
    <path id="Vector" d="M6.563,3.282A3.282,3.282,0,1,1,3.282,0,3.278,3.278,0,0,1,6.563,3.282Z" transform="translate(115.718 195.718)" fill="none" stroke="#395df7" stroke-linecap="round" stroke-linejoin="round" stroke-width="1.8"/>
    <path id="Vector-2" data-name="Vector" d="M8.97,15.171c3.236,0,6.252-1.907,8.351-5.207a4.882,4.882,0,0,0,0-4.758C15.221,1.907,12.205,0,8.97,0S2.718,1.907.619,5.207a4.882,4.882,0,0,0,0,4.758C2.718,13.264,5.734,15.171,8.97,15.171Z" transform="translate(110.03 191.41)" fill="none" stroke="#395df7" stroke-linecap="round" stroke-linejoin="round" stroke-width="1.8"/>
    <path id="Vector-3" data-name="Vector" d="M0,0H22V22H0Z" transform="translate(130 210) rotate(180)" fill="none" opacity="0"/>
  </g>
</svg>
