<svg xmlns="http://www.w3.org/2000/svg" width="85" height="85" viewBox="0 0 85 85">
  <g id="like" transform="translate(-236 -316)">
    <path id="Vector" d="M53.125,59.677H50.433a10.581,10.581,0,0,0-7.508,3.081l-6.056,5.985a7.162,7.162,0,0,1-10.023,0L20.79,62.758a10.642,10.642,0,0,0-7.508-3.081H10.625A10.566,10.566,0,0,1,0,49.158V10.519A10.566,10.566,0,0,1,10.625,0h42.5A10.566,10.566,0,0,1,63.75,10.519v38.64A10.588,10.588,0,0,1,53.125,59.677Z" transform="translate(246.625 323.119)" fill="none" stroke="#f7a739" stroke-linecap="round" stroke-linejoin="round" stroke-width="5"/>
    <g id="Group" transform="translate(262.563 340.792)">
      <path id="Vector-2" data-name="Vector" d="M16.929,28.192a3.768,3.768,0,0,1-1.983,0C10.342,26.6,0,20.046,0,8.89A8.854,8.854,0,0,1,15.938,3.542,8.854,8.854,0,0,1,31.875,8.89C31.84,20.046,21.533,26.6,16.929,28.192Z" fill="none" stroke="#f7a739" stroke-linecap="round" stroke-linejoin="round" stroke-width="5"/>
    </g>
    <path id="Vector-3" data-name="Vector" d="M0,0H85V85H0Z" transform="translate(321 401) rotate(180)" fill="none" opacity="0"/>
  </g>
</svg>
