<svg xmlns="http://www.w3.org/2000/svg" width="85" height="85" viewBox="0 0 85 85">
  <g id="book-saved" transform="translate(-108 -253)">
    <path id="Vector" d="M70.833,7.11V49.858a7.277,7.277,0,0,1-6.162,7.012l-1.169.142a90.173,90.173,0,0,0-26.421,8.712,3.825,3.825,0,0,1-3.4,0l-.142-.071A90.994,90.994,0,0,0,7.19,57.012l-1.027-.142A7.277,7.277,0,0,1,0,49.858V7.075A6.968,6.968,0,0,1,7.65.027c7.438.6,18.7,4.356,25,8.288l.885.531a3.924,3.924,0,0,0,3.754,0l.6-.39a54.61,54.61,0,0,1,8.146-4V18.9l7.083-4.71,7.083,4.71V.417A27.487,27.487,0,0,1,62.935.062h.212A6.977,6.977,0,0,1,70.833,7.11Z" transform="translate(115.083 262.429)" fill="none" stroke="#00c6a5" stroke-linecap="round" stroke-linejoin="round" stroke-width="5"/>
    <path id="Vector-2" data-name="Vector" d="M0,0V53.125" transform="translate(150.5 272.444)" fill="none" stroke="#00c6a5" stroke-linecap="round" stroke-linejoin="round" stroke-width="5"/>
    <path id="Vector-3" data-name="Vector" d="M14.167,0V18.487l-7.083-4.71L0,18.487V4.037A71.581,71.581,0,0,1,14.167,0Z" transform="translate(161.125 262.846)" fill="none" stroke="#00c6a5" stroke-linecap="round" stroke-linejoin="round" stroke-width="5"/>
    <path id="Vector-4" data-name="Vector" d="M0,0H85V85H0Z" transform="translate(108 253)" fill="none" opacity="0"/>
  </g>
</svg>
