<svg id="gift" xmlns="http://www.w3.org/2000/svg" width="40" height="40" viewBox="0 0 40 40">
  <path id="Vector" d="M26.667,0H0V13.333C0,18.333,1.667,20,6.667,20H20c5,0,6.667-1.667,6.667-6.667Z" transform="translate(6.617 16.667)" fill="none" stroke="#ed1c25" stroke-linecap="round" stroke-linejoin="round" stroke-width="3"/>
  <path id="Vector-2" data-name="Vector" d="M31.667,3.333V5a3.006,3.006,0,0,1-3.333,3.333h-25C.783,8.333,0,6.833,0,5V3.333C0,1.5.783,0,3.333,0h25A3.006,3.006,0,0,1,31.667,3.333Z" transform="translate(4.167 8.333)" fill="none" stroke="#ed1c25" stroke-linecap="round" stroke-linejoin="round" stroke-width="3"/>
  <path id="Vector-3" data-name="Vector" d="M9.613,5H.413a1.561,1.561,0,0,1,.05-2.167L2.83.463a1.6,1.6,0,0,1,2.25,0Z" transform="translate(9.787 3.338)" fill="none" stroke="#ed1c25" stroke-linecap="round" stroke-linejoin="round" stroke-width="3"/>
  <path id="Vector-4" data-name="Vector" d="M9.2,5H0L4.533.463a1.6,1.6,0,0,1,2.25,0L9.15,2.829A1.561,1.561,0,0,1,9.2,5Z" transform="translate(20.583 3.338)" fill="none" stroke="#ed1c25" stroke-linecap="round" stroke-linejoin="round" stroke-width="3"/>
  <path id="Vector-5" data-name="Vector" d="M0,0V8.567a1.671,1.671,0,0,0,2.583,1.4L4.15,8.933a1.665,1.665,0,0,1,1.833,0l1.483,1A1.662,1.662,0,0,0,10.05,8.55V0Z" transform="translate(14.9 16.667)" fill="none" stroke="#ed1c25" stroke-linecap="round" stroke-linejoin="round" stroke-width="3"/>
  <path id="Vector-6" data-name="Vector" d="M0,0H40V40H0Z" transform="translate(40 40) rotate(180)" fill="none" opacity="0"/>
</svg>
