<svg id="heart-circle" xmlns="http://www.w3.org/2000/svg" width="40" height="40" viewBox="0 0 40 40">
  <path id="Vector" d="M33.333,16.667A16.667,16.667,0,1,1,16.667,0,16.667,16.667,0,0,1,33.333,16.667Z" transform="translate(3.333 3.333)" fill="none" stroke="#00c6a5" stroke-linecap="round" stroke-linejoin="round" stroke-width="3"/>
  <path id="Vector-2" data-name="Vector" d="M9.55,15.933a2.116,2.116,0,0,1-1.117,0C5.833,15.05,0,11.333,0,5.033A4.992,4.992,0,0,1,9,2.017a4.992,4.992,0,0,1,9,3.017C18,11.333,12.167,15.05,9.55,15.933Z" transform="translate(11 13.15)" fill="none" stroke="#00c6a5" stroke-linecap="round" stroke-linejoin="round" stroke-width="3"/>
  <path id="Vector-3" data-name="Vector" d="M0,0H40V40H0Z" transform="translate(0 0)" fill="none" opacity="0"/>
</svg>
