<svg id="tag-user" xmlns="http://www.w3.org/2000/svg" width="40" height="40" viewBox="0 0 40 40">
  <path id="Vector" d="M25,28.1H23.733A4.979,4.979,0,0,0,20.2,29.55l-2.85,2.817a3.37,3.37,0,0,1-4.717,0L9.783,29.55A5.008,5.008,0,0,0,6.25,28.1H5a4.972,4.972,0,0,1-5-4.95V4.95A4.972,4.972,0,0,1,5,0H25a4.972,4.972,0,0,1,5,4.95V23.133A4.986,4.986,0,0,1,25,28.1Z" transform="translate(5 3.333)" fill="none" stroke="#f7a739" stroke-linecap="round" stroke-linejoin="round" stroke-width="3"/>
  <g id="Group" transform="translate(13.754 8.417)">
    <path id="Vector-2" data-name="Vector" d="M3.383,6.5h-.25A3.251,3.251,0,1,1,6.5,3.25,3.206,3.206,0,0,1,3.383,6.5Z" transform="translate(2.979 0)" fill="none" stroke="#f7a739" stroke-linecap="round" stroke-linejoin="round" stroke-width="3"/>
    <path id="Vector-3" data-name="Vector" d="M1.663,1.25c-2.217,1.483-2.217,3.9,0,5.383a8.951,8.951,0,0,0,9.167,0c2.217-1.483,2.217-3.9,0-5.383A9.028,9.028,0,0,0,1.663,1.25Z" transform="translate(0 10.267)" fill="none" stroke="#f7a739" stroke-linecap="round" stroke-linejoin="round" stroke-width="3"/>
  </g>
  <path id="Vector-4" data-name="Vector" d="M0,0H40V40H0Z" transform="translate(0 0)" fill="none" opacity="0"/>
</svg>
