<svg xmlns="http://www.w3.org/2000/svg" width="36" height="36" viewBox="0 0 36 36">
  <g id="book-square" transform="translate(-492 -188)">
    <path id="Vector" d="M10.5,30h9C27,30,30,27,30,19.5v-9C30,3,27,0,19.5,0h-9C3,0,0,3,0,10.5v9C0,27,3,30,10.5,30Z" transform="translate(495 191)" fill="none" stroke="#dae0f2" stroke-linecap="round" stroke-linejoin="round" stroke-width="3"/>
    <g id="Group" transform="translate(500.43 197.443)">
      <path id="Vector-2" data-name="Vector" d="M19.14,13.462V1.926a1.879,1.879,0,0,0-2.07-1.9h-.06a18.061,18.061,0,0,0-6.765,2.265l-.165.105a1.113,1.113,0,0,1-1.02,0l-.24-.15A17.855,17.855,0,0,0,2.07.007,1.887,1.887,0,0,0,0,1.912v11.55a1.96,1.96,0,0,0,1.665,1.89l.27.045a24.3,24.3,0,0,1,7.11,2.34l.045.015a.986.986,0,0,0,.915,0,24.368,24.368,0,0,1,7.14-2.355l.315-.045A1.948,1.948,0,0,0,19.14,13.462Z" transform="translate(0 0)" fill="none" stroke="#dae0f2" stroke-linecap="round" stroke-linejoin="round" stroke-width="3"/>
      <path id="Vector-3" data-name="Vector" d="M0,0V14.34" transform="translate(9.57 2.707)" fill="none" stroke="#dae0f2" stroke-linecap="round" stroke-linejoin="round" stroke-width="3"/>
    </g>
    <path id="Vector-4" data-name="Vector" d="M0,0H36V36H0Z" transform="translate(492 188)" fill="none" opacity="0"/>
  </g>
</svg>
