<svg xmlns="http://www.w3.org/2000/svg" width="30" height="30" viewBox="0 0 30 30">
  <g id="cup" transform="translate(-364 -380)">
    <path id="Vector" d="M0,0V2.625" transform="translate(379.188 400.625)" fill="none" stroke="#fff" stroke-linecap="round" stroke-linejoin="round" stroke-width="2"/>
    <path id="Vector-2" data-name="Vector" d="M0,3.75H12.5V2.5A2.507,2.507,0,0,0,10,0H2.5A2.507,2.507,0,0,0,0,2.5V3.75Z" transform="translate(372.938 403.75)" fill="none" stroke="#fff" stroke-width="2"/>
    <path id="Vector-3" data-name="Vector" d="M0,0H15" transform="translate(371.688 407.5)" fill="none" stroke="#fff" stroke-linecap="round" stroke-linejoin="round" stroke-width="2"/>
    <path id="Vector-4" data-name="Vector" d="M8.75,17.5A8.744,8.744,0,0,1,0,8.75V5A5,5,0,0,1,5,0h7.5a5,5,0,0,1,5,5V8.75A8.744,8.744,0,0,1,8.75,17.5Z" transform="translate(370.25 382.5)" fill="none" stroke="#fff" stroke-linecap="round" stroke-linejoin="round" stroke-width="2"/>
    <path id="Vector-5" data-name="Vector" d="M4.287,9.125a6.073,6.073,0,0,1-2.412-1.5A6.667,6.667,0,0,1,0,3.125,3.1,3.1,0,0,1,3.125,0h.813a4.7,4.7,0,0,0-.375,1.875v3.75A8.809,8.809,0,0,0,4.287,9.125Z" transform="translate(366.55 385.438)" fill="none" stroke="#fff" stroke-linecap="round" stroke-linejoin="round" stroke-width="2"/>
    <path id="Vector-6" data-name="Vector" d="M0,9.125a6.073,6.073,0,0,0,2.412-1.5,6.667,6.667,0,0,0,1.875-4.5A3.1,3.1,0,0,0,1.162,0H.35A4.7,4.7,0,0,1,.725,1.875v3.75A8.809,8.809,0,0,1,0,9.125Z" transform="translate(387.163 385.438)" fill="none" stroke="#fff" stroke-linecap="round" stroke-linejoin="round" stroke-width="2"/>
    <path id="Vector-7" data-name="Vector" d="M0,0H30V30H0Z" transform="translate(364 380)" fill="none" opacity="0"/>
  </g>
</svg>
