<svg xmlns="http://www.w3.org/2000/svg" width="30" height="30" viewBox="0 0 30 30">
  <g id="folder-open" transform="translate(-492 -188)">
    <path id="Vector" d="M24.193,4.125l-.5,6.25c-.187,1.912-.337,3.375-3.725,3.375H4.243C.855,13.75.705,12.287.518,10.375l-.5-6.25A3.789,3.789,0,0,1,.83,1.387l.025-.025A3.718,3.718,0,0,1,3.743,0H20.468A3.706,3.706,0,0,1,23.33,1.337c.013.013.025.025.025.038A3.656,3.656,0,0,1,24.193,4.125Z" transform="translate(494.895 201.75)" fill="none" stroke="#fff" stroke-width="2"/>
    <path id="Vector-2" data-name="Vector" d="M0,11.75V5.313C0,1.062,1.062,0,5.313,0H6.9A2.521,2.521,0,0,1,9.45,1.275L11.038,3.4a1.69,1.69,0,0,0,1.7.85h3.188c4.25,0,5.313,1.063,5.313,5.313V11.8" transform="translate(496.375 190.538)" fill="none" stroke="#fff" stroke-linecap="round" stroke-linejoin="round" stroke-width="2"/>
    <path id="Vector-3" data-name="Vector" d="M0,0H6.425" transform="translate(503.787 209.25)" fill="none" stroke="#fff" stroke-linecap="round" stroke-linejoin="round" stroke-width="2"/>
    <path id="Vector-4" data-name="Vector" d="M0,0H30V30H0Z" transform="translate(522 218) rotate(180)" fill="none" opacity="0"/>
  </g>
</svg>
