<svg xmlns="http://www.w3.org/2000/svg" width="30" height="30" viewBox="0 0 30 30">
  <g id="messages" transform="translate(-364 -250)">
    <path id="Vector" d="M18.75,8.75c0,4.837-4.2,8.75-9.375,8.75L8.213,18.9l-.688.825a1.257,1.257,0,0,1-2.1-.288L3.75,15.75A8.568,8.568,0,0,1,0,8.75C0,3.913,4.2,0,9.375,0a9.393,9.393,0,0,1,8.5,5.088A8.073,8.073,0,0,1,18.75,8.75Z" transform="translate(366.5 252.5)" fill="none" stroke="#fff" stroke-linecap="round" stroke-linejoin="round" stroke-width="2"/>
    <path id="Vector-2" data-name="Vector" d="M16.787,8.487a8.568,8.568,0,0,1-3.75,7l-1.675,3.687a1.251,1.251,0,0,1-2.1.288l-1.85-2.225A9.5,9.5,0,0,1,0,13.812l1.162-1.4c5.175,0,9.375-3.913,9.375-8.75A8.073,8.073,0,0,0,9.662,0,8.894,8.894,0,0,1,16.787,8.487Z" transform="translate(374.713 257.588)" fill="none" stroke="#fff" stroke-linecap="round" stroke-linejoin="round" stroke-width="2"/>
    <path id="Vector-3" data-name="Vector" d="M0,0H6.25" transform="translate(372.75 261.25)" fill="none" stroke="#fff" stroke-linecap="round" stroke-linejoin="round" stroke-width="2"/>
    <path id="Vector-4" data-name="Vector" d="M0,0H30V30H0Z" transform="translate(364 250)" fill="none" opacity="0"/>
  </g>
</svg>
