<svg id="apple-podcasts" xmlns="http://www.w3.org/2000/svg" xmlns:xlink="http://www.w3.org/1999/xlink" width="51" height="51" viewBox="0 0 51 51">
  <defs>
    <linearGradient id="linear-gradient" x1="0.5" x2="0.5" y2="1" gradientUnits="objectBoundingBox">
      <stop offset="0" stop-color="#ce79f8"/>
      <stop offset="1" stop-color="#7933b8"/>
    </linearGradient>
  </defs>
  <rect id="Rectangle_3265" data-name="Rectangle 3265" width="51" height="51" rx="25.5" fill="url(#linear-gradient)"/>
  <path id="Path_8698" data-name="Path 8698" d="M24.606,8.689A15.407,15.407,0,0,0,19.915,38.7a.194.194,0,0,0,.251-.223c-.083-.571-.181-1.155-.264-1.74a.529.529,0,0,0-.292-.39,13.319,13.319,0,1,1,10.438,0,.453.453,0,0,0-.292.39c-.083.6-.167,1.183-.264,1.74a.2.2,0,0,0,.25.223A15.406,15.406,0,0,0,24.606,8.689Z" transform="translate(0.536 0.495)" fill="#fff"/>
  <path id="Path_8699" data-name="Path 8699" d="M24.608,13.535a10.293,10.293,0,0,0-5.734,18.872.189.189,0,0,0,.292-.167c-.056-.752-.1-1.461-.111-2.115a.469.469,0,0,0-.167-.362,8.2,8.2,0,1,1,11.315.014.584.584,0,0,0-.167.362c-.014.654-.056,1.364-.111,2.116a.189.189,0,0,0,.292.167,10.3,10.3,0,0,0-5.609-18.886Z" transform="translate(0.812 0.77)" fill="#fff"/>
  <path id="Path_8700" data-name="Path 8700" d="M24.207,25.909a3.632,3.632,0,1,0-3.633-3.633A3.632,3.632,0,0,0,24.207,25.909Zm3.632,3.145A3.685,3.685,0,0,0,24.207,27.2a3.685,3.685,0,0,0-3.633,1.851c-.793,1.642.668,10.731,1.2,11.607a2.673,2.673,0,0,0,2.436,1.28,2.646,2.646,0,0,0,2.436-1.28C27.171,39.785,28.633,30.7,27.839,29.054Z" transform="translate(1.158 1.061)" fill="#fff"/>
</svg>
