<svg xmlns="http://www.w3.org/2000/svg" xmlns:xlink="http://www.w3.org/1999/xlink" width="44" height="51" viewBox="0 0 44 51">
  <defs>
    <linearGradient id="cast-gradient" x1="0.293" y1="0.138" x2="0.689" y2="0.882" gradientUnits="objectBoundingBox">
      <stop offset="0" stop-color="#ffa86e"/>
      <stop offset="1" stop-color="#ff3900"/>
    </linearGradient>
  </defs>
  <path id="castbox-svgrepo-com" d="M23.613,0a3.4,3.4,0,0,0-1.72.438L3.316,11.458a3.734,3.734,0,0,0-1.7,2.992v22.1a3.73,3.73,0,0,0,1.7,2.99L21.891,50.562a3.6,3.6,0,0,0,3.444,0L43.91,39.54a3.73,3.73,0,0,0,1.7-2.99V14.45a3.734,3.734,0,0,0-1.7-2.992L25.335.438A3.418,3.418,0,0,0,23.613,0Zm-1.8,17.646a1.477,1.477,0,0,1,1.512,1.436v4.726a.913.913,0,0,0,1.811,0V20.336a1.511,1.511,0,0,1,3.018,0V30.351a1.511,1.511,0,0,1-3.018,0V27.567a.913.913,0,0,0-1.811,0v2.605a1.512,1.512,0,0,1-3.02,0V26.63a.913.913,0,0,0-1.811,0v7.034a1.511,1.511,0,0,1-3.018,0V28.507a.913.913,0,0,0-1.811,0v.378a1.509,1.509,0,0,1-3.018,0V24.374a1.509,1.509,0,0,1,3.018,0v.378a.913.913,0,0,0,1.811,0V21.5a1.511,1.511,0,0,1,3.018,0v1.373a.913.913,0,0,0,1.811,0V19.082a1.475,1.475,0,0,1,1.51-1.436Zm9.662,5.134a1.475,1.475,0,0,1,1.51,1.436v5.718a1.511,1.511,0,0,1-3.018,0V24.216A1.473,1.473,0,0,1,31.475,22.78ZM36.3,25.687a1.474,1.474,0,0,1,1.51,1.436v1.424a1.511,1.511,0,0,1-3.018,0V27.125a1.477,1.477,0,0,1,1.51-1.439Z" transform="translate(-1.613 0)" fill="url(#cast-gradient)"/>
</svg>
