<svg id="google-podcasts" xmlns="http://www.w3.org/2000/svg" width="51" height="51" viewBox="0 0 51 51">
  <path id="Path_192" data-name="Path 192" d="M6.375,45.142v3.477a3.187,3.187,0,1,1-6.375,0V45.142a3.187,3.187,0,1,1,6.375,0Z" transform="translate(0 -21.38)" fill="#0066d9"/>
  <path id="Path_193" data-name="Path 193" d="M91,45.232v-.091a3.188,3.188,0,1,1,6.375,0V48.71a3.187,3.187,0,0,1-6.373,0V45.232Z" transform="translate(-46.375 -21.38)" fill="#4285f4"/>
  <path id="Path_194" data-name="Path 194" d="M28.829,44.733v3.477a3.187,3.187,0,1,1-6.375,0V44.733a3.188,3.188,0,0,1,6.375,0Zm0-20.864V35.243a3.187,3.187,0,0,1-6.375,0V23.869a3.188,3.188,0,0,1,6.375,0Z" transform="translate(-11.443 -10.54)" fill="#ea4335"/>
  <path id="Path_195" data-name="Path 195" d="M68.546,27.347a3.188,3.188,0,0,0,6.375,0V23.869a3.187,3.187,0,1,0-6.375,0Z" transform="translate(-34.932 -10.54)" fill="#34a853"/>
  <path id="Path_196" data-name="Path 196" d="M45.5,6.665a3.188,3.188,0,0,0,6.375,0V3.187a3.187,3.187,0,0,0-6.375,0Zm0,37.67a3.188,3.188,0,0,1,6.375,0v3.477a3.188,3.188,0,1,1-6.375,0Z" transform="translate(-23.188)" fill="#fab908"/>
  <path id="Path_197" data-name="Path 197" d="M68.546,50.46a3.188,3.188,0,0,1,6.375,0v11.3a3.187,3.187,0,1,1-6.375,0Z" transform="translate(-34.932 -24.091)" fill="#34a853"/>
  <path id="Path_198" data-name="Path 198" d="M51.875,29.779V48.324a3.188,3.188,0,0,1-6.375,0V29.779a3.188,3.188,0,0,1,6.375,0Z" transform="translate(-23.188 -13.551)" fill="#fab908"/>
</svg>
