<svg xmlns="http://www.w3.org/2000/svg" width="20" height="20" viewBox="0 0 20 20">
  <path id="instagram" d="M6.25,20A6.25,6.25,0,0,1,0,13.75V6.25A6.25,6.25,0,0,1,6.25,0h7.5A6.251,6.251,0,0,1,20,6.25v7.5A6.25,6.25,0,0,1,13.75,20ZM1.874,6.25v7.5A4.381,4.381,0,0,0,6.25,18.126h7.5a4.381,4.381,0,0,0,4.375-4.376V6.25A4.381,4.381,0,0,0,13.75,1.874H6.25A4.381,4.381,0,0,0,1.874,6.25ZM5,10a5,5,0,1,1,5,5A5,5,0,0,1,5,10Zm1.874,0A3.125,3.125,0,1,0,10,6.875,3.13,3.13,0,0,0,6.874,10ZM14.7,4.62a.666.666,0,1,1,.667.667A.667.667,0,0,1,14.7,4.62Z" fill="#8a8e99"/>
</svg>
