<svg xmlns="http://www.w3.org/2000/svg" width="51" height="51" viewBox="0 0 51 51">
  <g id="namlik" transform="translate(-7021)">
    <g id="Group" transform="translate(7021)">
      <path id="Shape-path" d="M15.748,1.919A25.381,25.381,0,0,1,25.479,0a25.759,25.759,0,0,1,9.773,1.919,26.138,26.138,0,0,1,8.279,5.543,25.305,25.305,0,0,1,5.505,8.273,25.268,25.268,0,0,1,0,19.53A25.444,25.444,0,0,1,35.252,49.081,25.759,25.759,0,0,1,25.479,51H0V25.5a25.7,25.7,0,0,1,1.921-9.765A25.7,25.7,0,0,1,15.748,1.919Z" fill="#9928ae" fill-rule="evenodd"/>
    </g>
    <g id="Group-2" data-name="Group" transform="translate(7024.578 3.578)">
      <path id="Shape-path-2" data-name="Shape-path" d="M6.413,6.408a22.444,22.444,0,0,1,7.11-4.76A21.794,21.794,0,0,1,21.878,0a22.119,22.119,0,0,1,8.392,1.648,22.444,22.444,0,0,1,7.11,4.76,21.73,21.73,0,0,1,4.727,7.1,21.7,21.7,0,0,1,0,16.77A21.849,21.849,0,0,1,30.271,42.146a22.119,22.119,0,0,1-8.392,1.648H0V21.9a22.068,22.068,0,0,1,1.649-8.385A22.423,22.423,0,0,1,6.413,6.408Zm15.465-.256a15.722,15.722,0,0,0-6.01,1.208,15,15,0,0,0-5.094,3.405,15.135,15.135,0,0,0-3.408,5.126A15.547,15.547,0,0,0,6.157,21.9V37.642H21.878a15.882,15.882,0,0,0,6.047-1.172,15.976,15.976,0,0,0,8.5-8.532A15.731,15.731,0,0,0,37.637,21.9a15.547,15.547,0,0,0-1.209-6.005,16.292,16.292,0,0,0-3.408-5.126A15.365,15.365,0,0,0,27.925,7.36,15.767,15.767,0,0,0,21.878,6.152Zm0,10.509a5.21,5.21,0,0,1,2.016.4A5.262,5.262,0,0,1,25.58,18.2a5.368,5.368,0,0,1,1.539,3.7,5.337,5.337,0,0,1-.4,2.014,5.241,5.241,0,0,1-4.837,3.222,5.165,5.165,0,0,1-1.979-.4A5.042,5.042,0,0,1,18.177,25.6a5.928,5.928,0,0,1-1.136-1.684,5.31,5.31,0,0,1-.366-2.014,5,5,0,0,1,.366-1.977A5.631,5.631,0,0,1,18.177,18.2,5.42,5.42,0,0,1,19.9,17.063,5.165,5.165,0,0,1,21.878,16.661Zm-.366-8.385a13.734,13.734,0,0,1,5.2,1.025,13.106,13.106,0,0,1,4.434,2.966,13.691,13.691,0,0,1,2.968,14.866,14.478,14.478,0,0,1-2.968,4.431,13.555,13.555,0,0,1-9.638,3.991h-.33V29.4h.33a7.524,7.524,0,0,0,2.858-.586,7.181,7.181,0,0,0,2.419-1.611A7.423,7.423,0,0,0,28.4,19.041a6.831,6.831,0,0,0-1.612-2.417,7.872,7.872,0,0,0-2.419-1.648,7.5,7.5,0,0,0-2.858-.549h-.33V8.275Z" fill="#fff" fill-rule="evenodd"/>
    </g>
  </g>
</svg>
