<svg xmlns="http://www.w3.org/2000/svg" width="54" height="54" viewBox="0 0 54 54">
  <g id="overcast" transform="translate(-78.504 -78.5)">
    <g id="Group_258" data-name="Group 258" transform="translate(80 80)">
      <circle id="Ellipse_436" data-name="Ellipse 436" cx="25.5" cy="25.5" r="25.5" transform="translate(0.004)" fill="none" stroke="#fc7e0f" stroke-linecap="round" stroke-width="3"/>
      <path id="Path_8701" data-name="Path 8701" d="M139.327,181.1a17.331,17.331,0,0,0-3.527,10.929c0,6.951,3.527,10.769,3.527,10.769m28.1-21.7a17.331,17.331,0,0,1,3.527,10.929c0,6.951-3.527,10.769-3.527,10.769m-5.625-17.05a11.181,11.181,0,0,1,2.317,6.266,9.3,9.3,0,0,1-2.288,6.164m-16.992-12.43a11.181,11.181,0,0,0-2.317,6.266,9.3,9.3,0,0,0,2.288,6.164" transform="translate(-127.669 -166.367)" fill="none" stroke="#fc7e0f" stroke-linecap="round" stroke-width="3"/>
    </g>
    <g id="Group_259" data-name="Group 259" transform="translate(97.472 101.252)">
      <circle id="Ellipse_437" data-name="Ellipse 437" cx="4.5" cy="4.5" r="4.5" transform="translate(3.531 -0.252)" fill="#fc7e0f"/>
      <path id="Path_8702" data-name="Path 8702" d="M208.716,279.689l-3.308-.889L199.9,299.376l3.308.889Z" transform="translate(-199.9 -271.082)" fill="#fc7e0f"/>
      <path id="Path_8703" data-name="Path 8703" d="M251.6,279.574l3.293-.874,5.479,20.591-3.293.874Z" transform="translate(-244.066 -270.996)" fill="#fc7e0f"/>
      <path id="Path_8704" data-name="Path 8704" d="M230.6,353.553l1.224-1.253,8.481,8.263-1.224,1.253Z" transform="translate(-226.126 -333.871)" fill="#fc7e0f"/>
      <path id="Path_8705" data-name="Path 8705" d="M224.116,354.622l-1.108-1.122-8.408,8.35,1.108,1.122Z" transform="translate(-212.458 -334.896)" fill="#fc7e0f"/>
    </g>
  </g>
</svg>
