<svg xmlns="http://www.w3.org/2000/svg" width="51.002" height="22" viewBox="0 0 51.002 22">
  <path id="soundcloud" d="M15.448,46.935a.618.618,0,0,1-.14-.376c0-.139-.08-1.344-.179-2.688l-.179-2.453.2-4.33c.2-4.409.219-4.567.557-4.567a.429.429,0,0,1,.259.119c.12.1.179.652.378,4.369l.239,4.27-.239,2.788A26.517,26.517,0,0,1,16,46.972a.386.386,0,0,1-.557-.019v-.018Zm2.029-.058a14.674,14.674,0,0,1-.318-2.966,33.968,33.968,0,0,1-.1-4.824c.04-1.128.12-3.361.179-4.964s.12-3.005.14-3.163c.08-.514.677-.593.8-.1.02.1.14,2.491.259,5.3l.219,5.122-.219,2.65q-.116,1.374-.219,2.748c0,.157-.259.375-.438.375a.407.407,0,0,1-.3-.2v.019Zm2.07.039c-.14-.139-.179-.356-.219-1.384-.04-.672-.1-1.681-.14-2.234a71.416,71.416,0,0,1,.04-7.553c.08-2.055.14-4.131.14-4.646.02-1.048.1-1.364.379-1.443.338-.079.6.158.6.574,0,.2.1,2.768.2,5.694l.2,5.319-.2,2.669c-.1,1.462-.2,2.708-.2,2.769,0,.157-.259.375-.458.375a.664.664,0,0,1-.338-.158v.018Zm2.069,0a1.488,1.488,0,0,1-.2-.732,68.611,68.611,0,0,1-.159-9.53c.179-6.484.219-7.1.378-7.256a.631.631,0,0,1,.736,0,26.721,26.721,0,0,1,.239,3.8c.239,7.177.259,8.323.1,10.676-.179,2.669-.2,2.906-.378,3.064a.5.5,0,0,1-.7-.039l-.019.021Zm2.069-.02a.766.766,0,0,1-.179-.455c0-.139-.06-1.324-.14-2.63a72.259,72.259,0,0,1,0-8.126c.159-6.168.159-6.07.617-6.168.4-.079.657.257.657.87,0,.277.04,1.72.08,3.183s.1,3.7.14,4.964c.02,1.246.06,2.333.08,2.392s-.04,1.3-.14,2.768q-.1,1.423-.179,2.848a.676.676,0,0,1-.6.554.55.55,0,0,1-.378-.2h.039Zm2.129.02c-.179-.178-.2-.4-.378-3.559-.1-1.839-.08-3.776.1-10.044.1-3.36.1-3.42.637-3.42a.6.6,0,0,1,.458.178c.179.178.179.316.258,3.2.02.909.1,3.124.14,4.9a47.037,47.037,0,0,1-.08,5.912c-.159,2.57-.179,2.669-.378,2.827a.609.609,0,0,1-.8,0h.04Zm2.109,0a1.209,1.209,0,0,1-.219-.732c-.14-1.523-.239-5.3-.2-7.533.02-1.384.08-3.5.1-4.745.1-5,.14-5.792.318-5.97a.643.643,0,0,1,.856,0c.219.217.239.85.438,10.5a61.365,61.365,0,0,1-.338,8.362.634.634,0,0,1-.975.119h.02Zm2.17-.02a.737.737,0,0,1-.279-.455c-.02-.159-.1-1.444-.179-2.867-.1-2.036-.12-3.262-.06-5.754.04-1.739.1-4.626.14-6.4.06-4.073.1-4.468.338-4.706a.66.66,0,0,1,.916.039c.2.2.219.277.239,1.285,0,.593.02,1.186.04,1.3s.04,1.8.08,3.736.08,3.54.1,3.56c.1.158.02,5.892-.1,7.671q-.082,1.087-.14,2.175a.841.841,0,0,1-.656.593.8.8,0,0,1-.439-.176Zm1.93-.039-.22-.218V26.2l.239-.178a8.419,8.419,0,0,1,2.388-.771,12.771,12.771,0,0,1,4.159.039,11.028,11.028,0,0,1,8.8,9.411l.06.316.777-.217a4.385,4.385,0,0,1,1.75-.178,4.8,4.8,0,0,1,2.068.355,6.23,6.23,0,0,1,3.4,8.66,6.034,6.034,0,0,1-3.583,3.124l-.636.238-9.472.02-9.472.02-.258-.178Zm-18.665-.079c-.04-.1-.159-1.4-.279-2.887a19.215,19.215,0,0,1-.06-4.388c.08-.93.16-2.076.2-2.531.06-.83.2-1.227.418-1.227.279,0,.359.317.6,2.828l.239,2.57-.239,2.729c-.12,1.5-.259,2.808-.3,2.926a.269.269,0,0,1-.3.2.283.283,0,0,1-.3-.2l.019-.02Zm-1.989.04c-.02-.04-.159-1.305-.279-2.808l-.239-2.729.239-2.827c.12-1.562.279-2.887.319-2.946a.262.262,0,0,1,.418,0,23.986,23.986,0,0,1,.359,2.927l.258,2.808-.258,2.728c-.14,1.5-.279,2.769-.3,2.827-.04.119-.458.159-.518.039v-.019ZM9.4,46.6c-.04-.059-.179-1.265-.3-2.689l-.239-2.59.219-2.452c.12-1.344.239-2.63.258-2.827.06-.4.239-.554.418-.376a21.537,21.537,0,0,1,.379,2.788l.279,2.689-.259,2.591c-.14,1.423-.3,2.669-.338,2.787-.1.218-.3.258-.418.1V46.6Zm-2.01-.83c-.02-.079-.159-1.166-.279-2.392l-.239-2.234.258-2.274c.239-2.175.279-2.274.458-2.313.219-.04.2-.139.557,2.61L8.4,41.221l-.258,2.156c-.14,1.187-.3,2.234-.338,2.352-.1.238-.319.259-.379.04H7.389ZM5.538,44.108Q5.4,43.37,5.3,42.625L5.12,41.281l.2-1.423A10.067,10.067,0,0,1,5.6,38.316c.2-.238.338.139.537,1.542l.219,1.423L6.135,42.7a6.465,6.465,0,0,1-.338,1.5c-.159.1-.219.079-.279-.079l.02-.019Z" transform="translate(-5.12 -25.095)" fill="#ff530d"/>
</svg>
