<svg xmlns="http://www.w3.org/2000/svg" width="51" height="51" viewBox="0 0 51 51">
  <g id="telegram-podcast" transform="translate(-0.318 -0.318)">
    <rect id="Rectangle_3273" data-name="Rectangle 3273" width="51" height="51" rx="25.5" transform="translate(0.318 0.318)" fill="#37aee2"/>
    <path id="Path_8719" data-name="Path 8719" d="M158.516,167.4c-1.1,0-1-.4-1.3-1.405L154,155.452,178.589,141" transform="translate(-138.419 -126.724)" fill="#c8daea"/>
    <path id="Path_8720" data-name="Path 8720" d="M199,327.531a2.478,2.478,0,0,0,1.606-.8l4.516-4.316L199.5,319" transform="translate(-178.902 -286.859)" fill="#a9c9dd"/>
    <path id="Path_8721" data-name="Path 8721" d="M76.891,138.886l13.549,9.936c1.405.9,2.609.4,3.011-1.405l5.52-25.894c.5-2.208-.9-3.212-2.409-2.509L64.345,131.459c-2.108.8-2.108,2.108-.4,2.609l8.33,2.609,19.069-12.144c.9-.5,1.706-.3,1.1.4" transform="translate(-56.291 -106.745)" fill="#f6fbfe"/>
  </g>
</svg>
