<svg xmlns="http://www.w3.org/2000/svg" width="20" height="20" viewBox="0 0 20 20">
  <path id="whatsapp" d="M42.181,32a9.78,9.78,0,0,0-9.818,9.742,9.642,9.642,0,0,0,1.409,5.031L32,52l5.436-1.727A9.766,9.766,0,1,0,42.181,32Zm4.882,13.442a2.536,2.536,0,0,1-1.737,1.119c-.46.024-.474.357-2.984-.734A10.244,10.244,0,0,1,38.2,41.914a4.815,4.815,0,0,1-.926-2.61,2.782,2.782,0,0,1,.956-2.041.962.962,0,0,1,.68-.286c.2,0,.326-.006.472,0s.366-.031.556.475.645,1.748.7,1.874a.455.455,0,0,1,0,.436,1.7,1.7,0,0,1-.266.405c-.131.141-.276.314-.392.422s-.267.249-.129.5a7.513,7.513,0,0,0,1.329,1.774,6.85,6.85,0,0,0,1.969,1.309c.246.134.393.119.546-.041s.654-.7.83-.945.342-.2.569-.1,1.436.739,1.682.873.41.2.469.308A2.062,2.062,0,0,1,47.063,45.442Z" transform="translate(-32 -32)" fill="#8a8e99"/>
</svg>
