<svg xmlns="http://www.w3.org/2000/svg" width="21.996" height="21.996" viewBox="0 0 21.996 21.996">
  <g id="call-outgoing" transform="translate(-300 -188)">
    <g id="call-outgoing-2" data-name="call-outgoing" transform="translate(301.833 189.833)">
      <path id="Vector" d="M18.3,14.967a2.333,2.333,0,0,1-.229,1,3.782,3.782,0,0,1-.623.935,4.132,4.132,0,0,1-1.5,1.081,4.6,4.6,0,0,1-1.787.348,7.638,7.638,0,0,1-2.988-.669,16.1,16.1,0,0,1-3.153-1.815A26.35,26.35,0,0,1,5.013,13.28a26.041,26.041,0,0,1-2.557-3A16.339,16.339,0,0,1,.66,7.158a7.719,7.719,0,0,1-.66-3A4.741,4.741,0,0,1,.33,2.392,4.218,4.218,0,0,1,1.384.862,2.685,2.685,0,0,1,3.29,0a1.722,1.722,0,0,1,.742.165,1.494,1.494,0,0,1,.614.513l2.126,3a3.137,3.137,0,0,1,.367.642,1.449,1.449,0,0,1,.128.559,1.244,1.244,0,0,1-.192.651,3.117,3.117,0,0,1-.513.651l-.7.724a.49.49,0,0,0-.147.367.832.832,0,0,0,.027.211c.027.073.055.128.073.183a7.605,7.605,0,0,0,.852,1.173c.412.477.852.962,1.329,1.448.495.486.971.935,1.457,1.347a7.034,7.034,0,0,0,1.182.843c.046.018.1.046.165.073a.633.633,0,0,0,.229.037.5.5,0,0,0,.376-.156l.7-.687a2.812,2.812,0,0,1,.66-.513,1.22,1.22,0,0,1,.651-.192,1.463,1.463,0,0,1,.559.119,3.545,3.545,0,0,1,.642.357l3.034,2.154a1.39,1.39,0,0,1,.5.587A1.88,1.88,0,0,1,18.3,14.967Z" fill="none" stroke="#ffcd03" stroke-width="1.8"/>
      <path id="Vector-2" data-name="Vector" d="M4.4,0V0Zm0,0H0" transform="translate(12.098 1.833)" fill="none" stroke="#ffcd03" stroke-linecap="round" stroke-linejoin="round" stroke-width="1.8"/>
    </g>
    <path id="Vector-3" data-name="Vector" d="M0,0H22V22H0Z" transform="translate(300 188)" fill="none" opacity="0"/>
  </g>
</svg>
