<svg xmlns="http://www.w3.org/2000/svg" width="22" height="22" viewBox="0 0 22 22">
  <g id="calendar-2" transform="translate(-172 -252)">
    <path id="Vector" d="M0,0V2.75" transform="translate(179.333 253.833)" fill="none" stroke="#838691" stroke-linecap="round" stroke-linejoin="round" stroke-width="1.5"/>
    <path id="Vector-2" data-name="Vector" d="M0,0V2.75" transform="translate(186.667 253.833)" fill="none" stroke="#838691" stroke-linecap="round" stroke-linejoin="round" stroke-width="1.5"/>
    <path id="Vector-3" data-name="Vector" d="M0,0H15.583" transform="translate(175.208 260.332)" fill="none" stroke="#838691" stroke-linecap="round" stroke-linejoin="round" stroke-width="1.5"/>
    <path id="Vector-4" data-name="Vector" d="M16.5,4.583v7.792c0,2.75-1.375,4.583-4.583,4.583H4.583C1.375,16.958,0,15.125,0,12.375V4.583C0,1.833,1.375,0,4.583,0h7.333C15.125,0,16.5,1.833,16.5,4.583Z" transform="translate(174.75 255.208)" fill="none" stroke="#838691" stroke-linecap="round" stroke-linejoin="round" stroke-width="1.5"/>
    <path id="Vector-5" data-name="Vector" d="M0,0H22V22H0Z" transform="translate(172 252)" fill="none" opacity="0"/>
    <path id="Vector-6" data-name="Vector" d="M.495.5H.5" transform="translate(182.501 264.058)" fill="none" stroke="#838691" stroke-linecap="round" stroke-linejoin="round" stroke-width="2"/>
    <path id="Vector-7" data-name="Vector" d="M.495.5H.5" transform="translate(179.109 264.058)" fill="none" stroke="#838691" stroke-linecap="round" stroke-linejoin="round" stroke-width="2"/>
    <path id="Vector-8" data-name="Vector" d="M.495.5H.5" transform="translate(179.109 266.808)" fill="none" stroke="#838691" stroke-linecap="round" stroke-linejoin="round" stroke-width="2"/>
  </g>
</svg>
