<svg xmlns="http://www.w3.org/2000/svg" width="26" height="26" viewBox="0 0 26 26">
  <g id="more" transform="translate(-556 -188)">
    <path id="Vector" d="M2.167,0A2.167,2.167,0,1,0,4.333,2.167,2.173,2.173,0,0,0,2.167,0Z" transform="translate(559.25 198.833)" fill="none" stroke="#5c5f66" stroke-width="1.8"/>
    <path id="Vector-2" data-name="Vector" d="M2.167,0A2.167,2.167,0,1,0,4.333,2.167,2.173,2.173,0,0,0,2.167,0Z" transform="translate(574.417 198.833)" fill="none" stroke="#5c5f66" stroke-width="1.8"/>
    <path id="Vector-3" data-name="Vector" d="M2.167,0A2.167,2.167,0,1,0,4.333,2.167,2.173,2.173,0,0,0,2.167,0Z" transform="translate(566.833 198.833)" fill="none" stroke="#5c5f66" stroke-width="1.8"/>
    <path id="Vector-4" data-name="Vector" d="M0,0H26V26H0Z" transform="translate(556 188)" fill="none" opacity="0"/>
  </g>
</svg>
