<svg xmlns="http://www.w3.org/2000/svg" width="26" height="26" viewBox="0 0 26 26">
  <g id="user-octagon" transform="translate(-620 -188)">
    <path id="Vector" d="M19.684,7.128v7.41a3.438,3.438,0,0,1-1.7,2.958l-6.435,3.716a3.427,3.427,0,0,1-3.413,0L1.7,17.5A3.412,3.412,0,0,1,0,14.538V7.128A3.438,3.438,0,0,1,1.7,4.171L8.136.455a3.427,3.427,0,0,1,3.413,0l6.435,3.716A3.425,3.425,0,0,1,19.684,7.128Z" transform="translate(623.152 190.167)" fill="none" stroke="#fff" stroke-linecap="round" stroke-linejoin="round" stroke-width="1.8"/>
    <g id="Group" transform="translate(628.667 194.868)">
      <path id="Vector-2" data-name="Vector" d="M5.048,2.524A2.524,2.524,0,1,1,2.524,0,2.524,2.524,0,0,1,5.048,2.524Z" transform="translate(1.809)" fill="none" stroke="#fff" stroke-linecap="round" stroke-linejoin="round" stroke-width="1.8"/>
      <path id="Vector-3" data-name="Vector" d="M8.667,3.532C8.667,1.582,6.728,0,4.333,0S0,1.582,0,3.532" transform="translate(0 7.648)" fill="none" stroke="#fff" stroke-linecap="round" stroke-linejoin="round" stroke-width="1.8"/>
    </g>
    <path id="Vector-4" data-name="Vector" d="M0,0H26V26H0Z" transform="translate(620 188)" fill="none" opacity="0"/>
  </g>
</svg>
